<?xml version="1.0" encoding="utf-8" standalone="yes"?>
<!DOCTYPE svg PUBLIC "-//W3C//DTD SVG 1.1//EN" "http://www.w3.org/Graphics/SVG/1.1/DTD/svg11.dtd">
<svg width="975" height="644" viewBox="0 0 975 644" style="fill:none;stroke:none;fill-rule:evenodd;clip-rule:evenodd;stroke-linecap:round;stroke-linejoin:round;stroke-miterlimit:1.5;" version="1.1" xmlns="http://www.w3.org/2000/svg" xmlns:xlink="http://www.w3.org/1999/xlink"><style id="fontImports">@import url("https://fonts.googleapis.com/css2?family=Roboto:wght@400;700&amp;display=block");</style><g id="items" style="isolation: isolate"><g id="blend" style="mix-blend-mode:normal"><g id="g-root-re_1um5x7gscg7bc-fill" data-item-order="999413827" data-item-id="re_1um5x7gscg7bc" data-item-class="Shape Stroke Fill" data-item-index="none" data-renderer-id="0" transform="translate(3, 3)"><g id="re_1um5x7gscg7bc-fill" stroke="none" fill="#505050"><g><path d="M 10 10L 958.5 10L 958.5 628L 10 628Z"></path></g></g></g><g id="g-root--1.line_sy_1cuab70ripv5w-fill" data-item-order="999642645" data-item-id="-1.line_sy_1cuab70ripv5w" data-item-class="Part Stroke" data-item-index="none" data-renderer-id="0" transform="translate(195, 129)"></g><g id="g-root-tx_centrali_mczk8cripukt-fill" data-item-order="1000000000" data-item-id="tx_centrali_mczk8cripukt" data-item-class="Label Stroke Indexed" data-item-index="none" data-renderer-id="0" transform="translate(735, 45)"><g id="tx_centrali_mczk8cripukt-fill" stroke="none" fill="#A3A3A3"><g><text style="font: 20px Roboto, sans-serif; white-space: pre;" font-weight="20px" font-size="Roboto," font-family="sans-serif"><tspan x="15.33" y="34" dominant-baseline="ideographic">Search for Past </tspan><tspan x="92.84" y="58" dominant-baseline="ideographic">Events</tspan></text></g></g></g><g id="g-root-comp_4pf2ukrsjtvn-fill" data-item-order="1000000000" data-item-id="comp_4pf2ukrsjtvn" data-item-class="Icon Stroke Indexed" data-item-index="none" data-renderer-id="0" transform="translate(891, 45)"></g><g id="g-root-tx_enablese_qp27u4ripwjr-fill" data-item-order="1000000000" data-item-id="tx_enablese_qp27u4ripwjr" data-item-class="Label Stroke Indexed" data-item-index="none" data-renderer-id="0" transform="translate(615, 117)"><g id="tx_enablese_qp27u4ripwjr-fill" stroke="none" fill="#A3A3A3"><g><text style="font: 20px Roboto, sans-serif; white-space: pre;" font-weight="20px" font-size="Roboto," font-family="sans-serif"><tspan x="15.33" y="34" dominant-baseline="ideographic">Enable Semantic </tspan><tspan x="102.59" y="58" dominant-baseline="ideographic">Search</tspan></text></g></g></g><g id="g-root-sett_zpnpd8rsju31-fill" data-item-order="1000000000" data-item-id="sett_zpnpd8rsju31" data-item-class="Icon Stroke Indexed" data-item-index="none" data-renderer-id="0" transform="translate(783, 117)"></g><g id="g-root-tx_storeind_1hbcrhoripwjq-fill" data-item-order="1000000000" data-item-id="tx_storeind_1hbcrhoripwjq" data-item-class="Label Stroke Indexed InsideFill" data-item-index="none" data-renderer-id="0" transform="translate(567, 189)"><g id="tx_storeind_1hbcrhoripwjq-fill" stroke="none" fill="#A3A3A3"><g><text style="font: 20px Roboto, sans-serif; white-space: pre;" font-weight="20px" font-size="Roboto," font-family="sans-serif"><tspan x="36.36" y="34" dominant-baseline="ideographic">Store in </tspan><tspan x="19.58" y="58" dominant-baseline="ideographic">Database</tspan></text></g></g></g><g id="g-root-uplo_1lw4qwcrsjuv8-fill" data-item-order="1000000000" data-item-id="uplo_1lw4qwcrsjuv8" data-item-class="Icon Stroke Indexed InsideFill" data-item-index="none" data-renderer-id="0" transform="translate(675, 189)"></g><g id="g-root-tx_generate_1lt1ovgripurs-fill" data-item-order="1000000000" data-item-id="tx_generate_1lt1ovgripurs" data-item-class="Label Stroke Indexed InsideFill" data-item-index="none" data-renderer-id="0" transform="translate(459, 261)"><g id="tx_generate_1lt1ovgripurs-fill" stroke="none" fill="#A3A3A3"><g><text style="font: 20px Roboto, sans-serif; white-space: pre;" font-weight="20px" font-size="Roboto," font-family="sans-serif"><tspan x="23.76" y="34" dominant-baseline="ideographic">Generate </tspan><tspan x="18.96" y="58" dominant-baseline="ideographic">Metadata</tspan></text></g></g></g><g id="g-root-down_me76zwrsjvny-fill" data-item-order="1000000000" data-item-id="down_me76zwrsjvny" data-item-class="Icon Stroke Indexed InsideFill" data-item-index="none" data-renderer-id="0" transform="translate(567, 261)"></g><g id="g-root-tx_transcri_142e5gsriptz5-fill" data-item-order="1000000000" data-item-id="tx_transcri_142e5gsriptz5" data-item-class="Label Stroke Indexed InsideFill" data-item-index="none" data-renderer-id="0" transform="translate(303, 345)"><g id="tx_transcri_142e5gsriptz5-fill" stroke="none" fill="#A3A3A3"><g><text style="font: 20px Roboto, sans-serif; white-space: pre;" font-weight="20px" font-size="Roboto," font-family="sans-serif"><tspan x="15.72" y="34" dominant-baseline="ideographic">Transcribe Text</tspan></text></g></g></g><g id="g-root-1_93d5porsju33-fill" data-item-order="1000000000" data-item-id="1_93d5porsju33" data-item-class="Icon Stroke Indexed InsideFill" data-item-index="none" data-renderer-id="0" transform="translate(459, 333)"></g><g id="g-root-tx_identify_hvamukripwcq-fill" data-item-order="1000000000" data-item-id="tx_identify_hvamukripwcq" data-item-class="Label Stroke Indexed" data-item-index="none" data-renderer-id="0" transform="translate(219, 405)"><g id="tx_identify_hvamukripwcq-fill" stroke="none" fill="#A3A3A3"><g><text style="font: 20px Roboto, sans-serif; white-space: pre;" font-weight="20px" font-size="Roboto," font-family="sans-serif"><tspan x="61.85" y="34" dominant-baseline="ideographic">Identify </tspan><tspan x="17.31" y="58" dominant-baseline="ideographic">Applications</tspan></text></g></g></g><g id="g-root-char_1qdtoa4rsjt3c-fill" data-item-order="1000000000" data-item-id="char_1qdtoa4rsjt3c" data-item-class="Icon Stroke Indexed InsideFill" data-item-index="none" data-renderer-id="0" transform="translate(351, 405)"></g><g id="g-root-tx_processi_4n3fwripvk3-fill" data-item-order="1000000000" data-item-id="tx_processi_4n3fwripvk3" data-item-class="Label Stroke Indexed" data-item-index="none" data-renderer-id="0" transform="translate(75, 489)"><g id="tx_processi_4n3fwripvk3-fill" stroke="none" fill="#A3A3A3"><g><text style="font: 20px Roboto, sans-serif; white-space: pre;" font-weight="20px" font-size="Roboto," font-family="sans-serif"><tspan x="20.78" y="34" dominant-baseline="ideographic">Process Images</tspan></text></g></g></g><g id="g-root-robo_zrj4mkrsjt3d-fill" data-item-order="1000000000" data-item-id="robo_zrj4mkrsjt3d" data-item-class="Icon Stroke Indexed InsideFill" data-item-index="none" data-renderer-id="0" transform="translate(243, 477)"></g><g id="g-root-tx_captures_1cza3vwripuks-fill" data-item-order="1000000000" data-item-id="tx_captures_1cza3vwripuks" data-item-class="Label Stroke Indexed" data-item-index="none" data-renderer-id="0" transform="translate(15, 549)"><g id="tx_captures_1cza3vwripuks-fill" stroke="none" fill="#A3A3A3"><g><text style="font: 20px Roboto, sans-serif; white-space: pre;" font-weight="20px" font-size="Roboto," font-family="sans-serif"><tspan x="58.15" y="34" dominant-baseline="ideographic">Capture </tspan><tspan x="17.27" y="58" dominant-baseline="ideographic">Screenshots</tspan></text></g></g></g><g id="g-root-shoo_i0944srsjvgi-fill" data-item-order="1000000000" data-item-id="shoo_i0944srsjvgi" data-item-class="Icon Stroke Indexed" data-item-index="none" data-renderer-id="0" transform="translate(135, 549)"></g><g id="g-root-re_1um5x7gscg7bc-stroke" data-item-order="999413827" data-item-id="re_1um5x7gscg7bc" data-item-class="Shape Stroke Fill" data-item-index="none" data-renderer-id="0" transform="translate(3, 3)"><g id="re_1um5x7gscg7bc-stroke" fill="none" stroke-linecap="round" stroke-linejoin="round" stroke-miterlimit="4" stroke="#A3A3A3" stroke-width="2"><g><path d="M 10 10L 958.5 10L 958.5 628L 10 628Z"></path></g></g></g><g id="g-root--1.line_sy_1cuab70ripv5w-stroke" data-item-order="999642645" data-item-id="-1.line_sy_1cuab70ripv5w" data-item-class="Part Stroke" data-item-index="none" data-renderer-id="0" transform="translate(195, 129)"><g id="-1.line_sy_1cuab70ripv5w-stroke" fill="none" stroke-linecap="round" stroke-linejoin="round" stroke-miterlimit="4" stroke="#A3A3A3" stroke-width="2"><g><path d="M 10 490L 10 466L 46 466L 46 442L 82 442L 82 418L 118 418L 118 394L 154 394L 154 370L 190 370L 190 346L 226 346L 226 322L 262 322L 262 298L 298 298L 298 274L 334 274L 334 250L 370 250L 370 226L 406 226L 406 202L 442 202L 442 178L 478 178L 478 154L 514 154L 514 130L 550 130L 550 106L 586 106L 586 82L 622 82L 622 58.5L 658 58.5L 658 34L 694 34L 694 10L 754.5 10"></path></g></g></g><g id="g-root-tx_centrali_mczk8cripukt-stroke" data-item-order="1000000000" data-item-id="tx_centrali_mczk8cripukt" data-item-class="Label Stroke Indexed" data-item-index="none" data-renderer-id="0" transform="translate(735, 45)"></g><g id="g-root-comp_4pf2ukrsjtvn-stroke" data-item-order="1000000000" data-item-id="comp_4pf2ukrsjtvn" data-item-class="Icon Stroke Indexed" data-item-index="none" data-renderer-id="0" transform="translate(891, 45)"><g id="comp_4pf2ukrsjtvn-stroke" fill="none" stroke-linecap="round" stroke-linejoin="round" stroke-miterlimit="4" stroke="#A3A3A3" stroke-width="2"><g><path d="M 34.068001 56C 22.040104 56.303532 11.901094 47.092411 11.052341 35.09066C 10.203586 23.088913 18.945362 12.542559 30.896265 11.150329C 42.847168 9.758099 53.77916 18.012543 55.711998 29.888M 28.08 55.334C 25.038 50.869999 23 42.757999 23 33.492001C 23 24.226 25.038 16.116001 28.08 11.65M 11.05 32L 35.896 32M 15.5 20L 51.5 20M 13.6 44L 34.071999 44M 38.924 11.65C 42.183144 17.157911 43.825809 23.472111 43.663998 29.869999M 48 39.732002C 52.970001 39.732002 57 38.442001 57 36.851997C 57 35.262001 52.970001 33.972 48 33.972C 43.029999 33.972 39 35.260002 39 36.851997C 39 38.444 43.029999 39.732002 48 39.732002ZM 39 45.492001L 39 36.851997M 57 36.851997L 57 45.492001M 57 45.492001L 57 54.132C 57 55.720001 52.970001 57.012001 48 57.012001C 43.029999 57.012001 39 55.720001 39 54.132L 39 45.492001M 57 42.492001C 57 44.080002 52.970001 45.372002 48 45.372002C 43.029999 45.372002 39 44.080002 39 42.492001M 57 48.492001C 57 50.080002 52.970001 51.372002 48 51.372002C 43.029999 51.372002 39 50.080002 39 48.492001"></path></g></g></g><g id="g-root-tx_enablese_qp27u4ripwjr-stroke" data-item-order="1000000000" data-item-id="tx_enablese_qp27u4ripwjr" data-item-class="Label Stroke Indexed" data-item-index="none" data-renderer-id="0" transform="translate(615, 117)"></g><g id="g-root-sett_zpnpd8rsju31-stroke" data-item-order="1000000000" data-item-id="sett_zpnpd8rsju31" data-item-class="Icon Stroke Indexed" data-item-index="none" data-renderer-id="0" transform="translate(783, 117)"><g id="sett_zpnpd8rsju31-stroke" fill="none" stroke-linecap="round" stroke-linejoin="round" stroke-miterlimit="4" stroke="#A3A3A3" stroke-width="2"><g><path d="M 26.059999 28.059999C 26.059999 29.16457 26.955431 30.059999 28.059999 30.059999C 29.16457 30.059999 30.059999 29.16457 30.059999 28.059999C 30.059999 26.955431 29.16457 26.059999 28.059999 26.059999C 26.955431 26.059999 26.059999 26.955431 26.059999 28.059999ZM 29.76 20.324001L 30.35 22.26C 30.549555 22.928349 31.23465 23.326088 31.914001 23.167999L 33.877998 22.714001C 34.642082 22.540663 35.429832 22.886141 35.819893 23.565641C 36.209949 24.24514 36.111012 25.099613 35.576 25.672001L 34.202 27.152C 33.728321 27.664669 33.728321 28.455332 34.202 28.968L 35.576 30.450001C 36.111012 31.022388 36.209949 31.87686 35.819893 32.556358C 35.429832 33.235859 34.642082 33.581337 33.877998 33.408001L 31.914 32.952C 31.234964 32.796013 30.551224 33.19297 30.35 33.860001L 29.76 35.799999C 29.535793 36.551743 28.844467 37.066975 28.060001 37.066975C 27.275534 37.066975 26.584209 36.551743 26.360001 35.800003L 25.77 33.862C 25.567949 33.195625 24.884876 32.799057 24.206001 32.954002L 22.242001 33.41C 21.477921 33.583336 20.690166 33.237862 20.30011 32.558357C 19.910051 31.87886 20.008989 31.024389 20.544001 30.452L 21.916 28.969999C 22.391617 28.458092 22.391617 27.665909 21.916 27.154001L 20.543999 25.674C 20.008989 25.101612 19.910051 24.247141 20.30011 23.567642C 20.690166 22.888142 21.477921 22.542664 22.242001 22.716L 24.206001 23.17C 24.885193 23.327034 25.569611 22.929688 25.77 22.262001L 26.360001 20.326C 26.583767 19.574123 27.274788 19.058487 28.059256 19.058025C 28.843723 19.057564 29.535351 19.572388 29.76 20.324001ZM 11.059999 28.059999C 11.06 37.448841 18.67116 45.060001 28.059999 45.060001C 37.448841 45.060001 45.060001 37.448841 45.060001 28.059999C 45.060001 18.67116 37.448841 11.06 28.059999 11.06C 18.67116 11.06 11.06 18.67116 11.06 28.059999ZM 40.082001 40.082001L 44.745998 44.745998M 56.060001 51.818001C 57.196922 52.995136 57.180664 54.866257 56.02346 56.02346C 54.866257 57.180664 52.995136 57.196922 51.818001 56.060001L 44.040001 48.282001C 43.259235 47.500999 43.259235 46.235001 44.040001 45.453999L 45.453999 44.040001C 46.235001 43.259235 47.500999 43.259235 48.282001 44.040001Z"></path></g></g></g><g id="g-root-tx_storeind_1hbcrhoripwjq-stroke" data-item-order="1000000000" data-item-id="tx_storeind_1hbcrhoripwjq" data-item-class="Label Stroke Indexed InsideFill" data-item-index="none" data-renderer-id="0" transform="translate(567, 189)"></g><g id="g-root-uplo_1lw4qwcrsjuv8-stroke" data-item-order="1000000000" data-item-id="uplo_1lw4qwcrsjuv8" data-item-class="Icon Stroke Indexed InsideFill" data-item-index="none" data-renderer-id="0" transform="translate(675, 189)"><g id="uplo_1lw4qwcrsjuv8-stroke" fill="none" stroke-linecap="round" stroke-linejoin="round" stroke-miterlimit="4" stroke="#A3A3A3" stroke-width="2"><g><path d="M 49.046001 19.052C 49.046001 23.462 40.538002 27.052 30.046 27.052C 19.554001 27.052 11.046 23.462 11.046 19.052C 11.046 14.642 19.554001 11 30.046 11C 40.538002 11 49.046001 14.63 49.046001 19.052ZM 30.046 35.052002C 19.554001 35.052002 11.046 31.462 11.046 27.052M 27.046 43.950001C 17.98 43.349998 11.046 40.034 11.046 36.052002M 28.046 52.986C 18.493999 52.562 11.046 49.186001 11.046 45.051998L 11.046 19M 49.046001 19.001999L 49.046001 28.002001M 33.035999 45.001999C 33.036003 51.629417 38.408585 57.002003 45.035999 57.002003C 51.663418 57.002003 57.035999 51.629417 57.035999 45.002003C 57.035999 38.374584 51.663418 33.001999 45.035999 33.001999C 38.408585 33.001999 33.036003 38.374584 33.036003 45.002003ZM 45.035999 51.001999L 45.035999 39.001999M 45.035999 39.001999L 40.535999 43.501999M 45.035999 39.001999L 49.535999 43.501999"></path></g></g></g><g id="g-root-tx_generate_1lt1ovgripurs-stroke" data-item-order="1000000000" data-item-id="tx_generate_1lt1ovgripurs" data-item-class="Label Stroke Indexed InsideFill" data-item-index="none" data-renderer-id="0" transform="translate(459, 261)"></g><g id="g-root-down_me76zwrsjvny-stroke" data-item-order="1000000000" data-item-id="down_me76zwrsjvny" data-item-class="Icon Stroke Indexed InsideFill" data-item-index="none" data-renderer-id="0" transform="translate(567, 261)"><g id="down_me76zwrsjvny-stroke" fill="none" stroke-linecap="round" stroke-linejoin="round" stroke-miterlimit="4" stroke="#A3A3A3" stroke-width="2"><g><path d="M 43.084 28.098L 46.683998 24.424C 47.522617 23.471119 48.0158 22.263523 48.084 20.995998L 48.084 12.996C 48.084 11.891431 47.188568 10.996 46.084 10.996L 37.568001 11.01C 36.302147 11.080307 35.098015 11.579739 34.153999 12.426L 12.498 34.082001C 11.717237 34.862999 11.717237 36.128998 12.498 36.91L 22.17 46.582001C 22.543736 46.955734 23.051384 47.164532 23.57992 47.1619C 24.108456 47.159271 24.614 46.945435 24.983999 46.567997L 27.084 44.424M 38.084 17.996C 38.084 19.652855 39.427147 20.996 41.084 20.996C 42.740856 20.996 44.084 19.652855 44.084 17.996C 44.084 16.339146 42.740856 14.996 41.084 14.996C 39.427147 14.996 38.084 16.339146 38.084 17.996ZM 32.084 44.995998C 32.084 51.623417 37.456585 56.996002 44.084 56.996002C 50.711418 56.996002 56.084 51.623417 56.084 44.996002C 56.084 38.368584 50.711418 32.996002 44.084 32.996002C 37.456585 32.996002 32.084 38.368584 32.084 44.996002ZM 44.084 38.996002L 44.084 50.995998M 44.084 50.995998L 39.584 46.495998M 44.084 50.995998L 48.584 46.495998"></path></g></g></g><g id="g-root-tx_transcri_142e5gsriptz5-stroke" data-item-order="1000000000" data-item-id="tx_transcri_142e5gsriptz5" data-item-class="Label Stroke Indexed InsideFill" data-item-index="none" data-renderer-id="0" transform="translate(303, 345)"></g><g id="g-root-1_93d5porsju33-stroke" data-item-order="1000000000" data-item-id="1_93d5porsju33" data-item-class="Icon Stroke Indexed InsideFill" data-item-index="none" data-renderer-id="0" transform="translate(459, 333)"><g id="1_93d5porsju33-stroke" fill="none" stroke-linecap="round" stroke-linejoin="round" stroke-miterlimit="4" stroke="#A3A3A3" stroke-width="2"><g><path d="M 22 56.285713L 32.765713 31.154285C 32.973331 30.656004 33.460194 30.331429 34 30.331429C 34.539806 30.331429 35.026669 30.656004 35.234287 31.154285L 46 56.285713M 26.834286 45.005714L 41.165714 45.005714M 11.714286 23.714287C 11.714286 17.086868 17.086868 11.714286 23.714287 11.714286M 11.714286 23.714287C 11.714286 17.086868 17.086868 11.714286 23.714287 11.714286M 20.285715 23.714287C 20.285715 21.820738 21.820738 20.285715 23.714287 20.285715M 20.285715 23.714287C 20.285715 21.820738 21.820738 20.285715 23.714287 20.285715M 44.285713 11.714286C 50.913132 11.714286 56.285717 17.086868 56.285717 23.714287M 44.285713 11.714286C 50.913132 11.714286 56.285717 17.086868 56.285717 23.714287M 44.285713 20.285715C 46.179264 20.285715 47.714287 21.820738 47.714287 23.714287M 44.285713 20.285715C 46.179264 20.285715 47.714287 21.820738 47.714287 23.714287"></path></g></g></g><g id="g-root-tx_identify_hvamukripwcq-stroke" data-item-order="1000000000" data-item-id="tx_identify_hvamukripwcq" data-item-class="Label Stroke Indexed" data-item-index="none" data-renderer-id="0" transform="translate(219, 405)"></g><g id="g-root-char_1qdtoa4rsjt3c-stroke" data-item-order="1000000000" data-item-id="char_1qdtoa4rsjt3c" data-item-class="Icon Stroke Indexed InsideFill" data-item-index="none" data-renderer-id="0" transform="translate(351, 405)"><g id="char_1qdtoa4rsjt3c-stroke" fill="none" stroke-linecap="round" stroke-linejoin="round" stroke-miterlimit="4" stroke="#A3A3A3" stroke-width="2"><g><path d="M 15 13.007999L 53 13.007999C 53 13.007999 57 13.007999 57 17.007999L 57 51.007999C 57 51.007999 57 55.007999 53 55.007999L 15 55.007999C 15 55.007999 11 55.007999 11 51.007999L 11 17.007999C 11 17.007999 11 13.007999 15 13.007999M 11 23.007999L 57 23.007999M 18 17.507999C 18.202953 17.508026 18.385757 17.63073 18.462656 17.818552C 18.539555 18.006374 18.495289 18.222046 18.350628 18.364393C 18.205963 18.506741 17.989607 18.547522 17.803051 18.467604C 17.616493 18.387688 17.496754 18.202927 17.5 18C 17.504368 17.726986 17.726952 17.507965 18 17.507999M 24 17.507999C 24.202953 17.508026 24.385757 17.63073 24.462656 17.818552C 24.539555 18.006374 24.495289 18.222046 24.350628 18.364393C 24.205963 18.506741 23.989607 18.547522 23.803051 18.467604C 23.616493 18.387688 23.496754 18.202927 23.5 18C 23.504368 17.726986 23.726952 17.507965 24 17.507999M 30 17.507999C 30.202953 17.508026 30.385757 17.63073 30.462656 17.818552C 30.539555 18.006374 30.495289 18.222046 30.350626 18.364393C 30.205965 18.506741 29.989607 18.547522 29.803049 18.467604C 29.616493 18.387688 29.496754 18.202927 29.5 18C 29.5 17.723858 29.723858 17.5 30 17.5M 16 39.007999C 16 44.530849 20.477154 49.007999 26 49.007999C 31.522848 49.007999 36 44.530849 36 39.008003C 36 33.485153 31.522848 29.008001 26 29.008001C 20.477154 29.008001 16 33.485153 16 39.008003M 31.642 30.752001L 26 39.007999L 32.41 46.681999M 26 39.007999L 16 39.007999M 40 31.007999L 52 31.007999M 40 37.007999L 52 37.007999M 40 43.007999L 52 43.007999"></path></g></g></g><g id="g-root-tx_processi_4n3fwripvk3-stroke" data-item-order="1000000000" data-item-id="tx_processi_4n3fwripvk3" data-item-class="Label Stroke Indexed" data-item-index="none" data-renderer-id="0" transform="translate(75, 489)"></g><g id="g-root-robo_zrj4mkrsjt3d-stroke" data-item-order="1000000000" data-item-id="robo_zrj4mkrsjt3d" data-item-class="Icon Stroke Indexed InsideFill" data-item-index="none" data-renderer-id="0" transform="translate(243, 477)"><g id="robo_zrj4mkrsjt3d-stroke" fill="none" stroke-linecap="round" stroke-linejoin="round" stroke-miterlimit="4" stroke="#A3A3A3" stroke-width="2"><g><path d="M 22 11L 46 11C 46 11 49 11 49 14L 49 26C 49 26 49 29 46 29L 22 29C 22 29 19 29 19 26L 19 14C 19 14 19 11 22 11M 23 20C 23 21.656855 24.343147 23 26 23C 27.656855 23 29 21.656855 29 20C 29 18.343147 27.656855 17 26 17C 24.343147 17 23 18.343147 23 20M 39 20C 39 21.656855 40.343147 23 42 23C 43.656857 23 45 21.656855 45 20C 45 18.343147 43.656857 17 42 17C 40.343147 17 39 18.343147 39 20M 31 33L 37 33M 31 37L 37 37M 40.68 41L 27.32 41C 25.107628 40.998844 23.01342 41.998344 21.622852 43.719078C 20.232283 45.439812 19.694555 47.697144 20.16 49.860004L 21.1 56.200001C 21.187756 56.670036 21.60191 57.008121 22.08 57L 46 57C 46.478088 57.008121 46.892246 56.670036 46.98 56.200001L 47.919998 49.860001C 48.388565 47.683365 47.840996 45.411789 46.432152 43.687706C 45.023304 41.963623 42.906357 40.974472 40.68 41ZM 48 47.560001L 51.419998 44.34C 53.624912 42.596592 54.62915 39.739578 54.000004 37L 54 36.620003M 56 29C 57.136318 30.515089 57.319096 32.542149 56.472137 34.236069C 55.625175 35.929989 53.89386 37 52 37C 50.425468 37.003166 48.942188 36.261524 48 35M 20 47.560001L 16.619999 44.34C 14.400293 42.606178 13.379891 39.747494 14 37L 14 36.599998M 12 29C 10.863684 30.515089 10.680904 32.542149 11.527864 34.236069C 12.374825 35.929989 14.10614 37 16 37C 17.574532 37.003166 19.057812 36.261524 20 35M 42 57L 42 48C 42 47.447716 41.552284 47 41 47L 27 47C 26.447716 47 26 47.447716 26 48L 26 57"></path></g></g></g><g id="g-root-tx_captures_1cza3vwripuks-stroke" data-item-order="1000000000" data-item-id="tx_captures_1cza3vwripuks" data-item-class="Label Stroke Indexed" data-item-index="none" data-renderer-id="0" transform="translate(15, 549)"></g><g id="g-root-shoo_i0944srsjvgi-stroke" data-item-order="1000000000" data-item-id="shoo_i0944srsjvgi" data-item-class="Icon Stroke Indexed" data-item-index="none" data-renderer-id="0" transform="translate(135, 549)"><g id="shoo_i0944srsjvgi-stroke" fill="none" stroke-linecap="round" stroke-linejoin="round" stroke-miterlimit="4" stroke="#A3A3A3" stroke-width="2"><g><path d="M 46.5 17C 48.709141 17 50.5 18.790861 50.5 21L 50.5 53C 50.5 55.209141 48.709141 57 46.5 57L 24.5 57C 22.290861 57 20.5 55.209141 20.5 53L 20.5 25M 24.5 21C 24.5 22.104568 25.395432 23 26.5 23C 27.60457 23 28.5 22.104568 28.5 21C 28.5 19.895432 27.60457 19 26.5 19C 25.395432 19 24.5 19.895432 24.5 21ZM 32.5 21C 32.5 22.104568 33.395432 23 34.5 23C 35.604568 23 36.5 22.104568 36.5 21C 36.5 19.895432 35.604568 19 34.5 19C 33.395432 19 32.5 19.895432 32.5 21ZM 30.5 53L 40.5 53M 30.5 15L 30.5 11M 37.5 16L 39.5 14M 23.5 16L 21.5 14M 17.5 21L 20.5 21M 40.5 21L 43.5 21"></path></g></g></g></g></g></svg>