<?xml version="1.0" encoding="utf-8" standalone="yes"?>
<!DOCTYPE svg PUBLIC "-//W3C//DTD SVG 1.1//EN" "http://www.w3.org/Graphics/SVG/1.1/DTD/svg11.dtd">
<svg width="720" height="487" viewBox="0 0 720 487" style="fill:none;stroke:none;fill-rule:evenodd;clip-rule:evenodd;stroke-linecap:round;stroke-linejoin:round;stroke-miterlimit:1.5;" version="1.1" xmlns="http://www.w3.org/2000/svg" xmlns:xlink="http://www.w3.org/1999/xlink"><style id="fontImports">@import url("https://fonts.googleapis.com/css2?family=Roboto:wght@400;700&amp;display=block");</style><g id="items" style="isolation: isolate"><g id="blend" style="mix-blend-mode:normal"><g id="g-root--1.cu_sy_znt5q4r86n0g-fill" data-item-order="999847940" data-item-id="-1.cu_sy_znt5q4r86n0g" data-item-class="Part Fill Stroke ColorFillBlack ColorStrokeBlack" data-item-index="-1" data-renderer-id="0" transform="translate(290, 74)"><g id="-1.cu_sy_znt5q4r86n0g-fill" stroke="none" fill="#353535"><g><path d="M 65.766602 394C 80.754802 394 106.000002 308.039 106.000002 202C 106.000002 95.9613 80.754802 10 65.766602 10C 80.775202 10.01 92.941702 96.2224 92.941702 202C 92.941702 307.778 80.775202 393.99 65.766602 394ZM 65.765897 394C 80.774597 393.99 92.941097 307.778 92.941097 202C 92.941097 96.2224 80.774597 10.01 65.765897 10L 51.957397 10C 66.060697 16.8878 77.199297 100.4719 77.199297 202C 77.199297 303.528 65.382597 387.112 51.279297 394L 65.765897 394ZM 77.2 202C 77.2 303.528 65.3833 387.112 51.28 394L 50.0615 394C 35.0734 394 10 308.039 10 202C 10 95.9613 35.0734 10 50.0615 10C 50.6991 10 51.9581 10 51.9581 10C 66.0614 16.8878 77.2 100.4719 77.2 202Z"></path></g></g></g><g id="g-root--1.cu_sy_znt5q4r86n0g-fill" data-item-order="999847940" data-item-id="-1.cu_sy_znt5q4r86n0g" data-item-class="Part Fill Stroke ColorFillBlack ColorStrokeBlack" data-item-index="-1" data-renderer-id="0" transform="translate(290, 74)"><g id="-1.cu_sy_znt5q4r86n0g-fill" stroke="none" fill="#353535"><g><path d="M 65.766602 394C 80.754802 394 106.000002 308.039 106.000002 202C 106.000002 95.9613 80.754802 10 65.766602 10C 80.775202 10.01 92.941702 96.2224 92.941702 202C 92.941702 307.778 80.775202 393.99 65.766602 394ZM 65.765897 394C 80.774597 393.99 92.941097 307.778 92.941097 202C 92.941097 96.2224 80.774597 10.01 65.765897 10L 51.957397 10C 66.060697 16.8878 77.199297 100.4719 77.199297 202C 77.199297 303.528 65.382597 387.112 51.279297 394L 65.765897 394ZM 77.2 202C 77.2 303.528 65.3833 387.112 51.28 394L 50.0615 394C 35.0734 394 10 308.039 10 202C 10 95.9613 35.0734 10 50.0615 10C 50.6991 10 51.9581 10 51.9581 10C 66.0614 16.8878 77.2 100.4719 77.2 202Z"></path></g></g></g><g id="g-root-0.cr-medium_cr_qssmkcr86knd-fill" data-item-order="999847942" data-item-id="0.cr-medium_cr_qssmkcr86knd" data-item-class="Shape Stroke Fill Part Indexed_0" data-item-index="0" data-renderer-id="0" transform="translate(458, 230)"><g id="0.cr-medium_cr_qssmkcr86knd-fill" stroke="none" fill="#505050"><g><path d="M 10 46C 10 65.882251 26.117749 82 46 82C 65.882251 82 82 65.882251 82 46C 82 26.117749 65.882251 10 46 10C 26.117749 10 10 26.117749 10 46"></path></g></g></g><g id="g-root-0.cr-medium_cr_qssmkcr86knd-fill" data-item-order="999847942" data-item-id="0.cr-medium_cr_qssmkcr86knd" data-item-class="Shape Stroke Fill Part Indexed_0" data-item-index="0" data-renderer-id="0" transform="translate(458, 230)"><g id="0.cr-medium_cr_qssmkcr86knd-fill" stroke="none" fill="#505050"><g><path d="M 10 46C 10 65.882251 26.117749 82 46 82C 65.882251 82 82 65.882251 82 46C 82 26.117749 65.882251 10 46 10C 26.117749 10 10 26.117749 10 46"></path></g></g></g><g id="g-root-5.line_sy_1qbz4n0r86m0y-fill" data-item-order="999847945" data-item-id="5.line_sy_1qbz4n0r86m0y" data-item-class="Part Indexed Stroke" data-item-index="5" data-renderer-id="0" transform="translate(206, 308)"></g><g id="g-root-5.line_sy_1qbz4n0r86m0y-fill" data-item-order="999847945" data-item-id="5.line_sy_1qbz4n0r86m0y" data-item-class="Part Indexed Stroke" data-item-index="5" data-renderer-id="0" transform="translate(206, 308)"></g><g id="g-root-5.cr-small_cr_1qbz4n0r86m0z-fill" data-item-order="999847946" data-item-id="5.cr-small_cr_1qbz4n0r86m0z" data-item-class="Shape Stroke Fill Part Indexed" data-item-index="5" data-renderer-id="0" transform="translate(146, 404)"><g id="5.cr-small_cr_1qbz4n0r86m0z-fill" stroke="none" fill="#5a3f27"><g><path d="M 10 40C 10.000002 56.568544 23.431459 70.000002 40.000002 70.000002C 56.568544 70.000002 70.000002 56.568544 70.000002 40.000002C 70.000002 23.431459 56.568544 10.000002 40.000002 10.000002C 23.431459 10.000002 10.000002 23.431459 10.000002 40.000002"></path></g></g></g><g id="g-root-5.cr-small_cr_1qbz4n0r86m0z-fill" data-item-order="999847946" data-item-id="5.cr-small_cr_1qbz4n0r86m0z" data-item-class="Shape Stroke Fill Part Indexed" data-item-index="5" data-renderer-id="0" transform="translate(146, 404)"><g id="5.cr-small_cr_1qbz4n0r86m0z-fill" stroke="none" fill="#5a3f27"><g><path d="M 10 40C 10.000002 56.568544 23.431459 70.000002 40.000002 70.000002C 56.568544 70.000002 70.000002 56.568544 70.000002 40.000002C 70.000002 23.431459 56.568544 10.000002 40.000002 10.000002C 23.431459 10.000002 10.000002 23.431459 10.000002 40.000002"></path></g></g></g><g id="g-root-4.line_sy_4mbl18r86kn4-fill" data-item-order="999847949" data-item-id="4.line_sy_4mbl18r86kn4" data-item-class="Part Indexed Stroke" data-item-index="4" data-renderer-id="0" transform="translate(206, 290)"></g><g id="g-root-4.line_sy_4mbl18r86kn4-fill" data-item-order="999847949" data-item-id="4.line_sy_4mbl18r86kn4" data-item-class="Part Indexed Stroke" data-item-index="4" data-renderer-id="0" transform="translate(206, 290)"></g><g id="g-root-4.cr-small_cr_1ursmrgr86l8p-fill" data-item-order="999847950" data-item-id="4.cr-small_cr_1ursmrgr86l8p" data-item-class="Shape Stroke Fill Part Indexed" data-item-index="4" data-renderer-id="0" transform="translate(146, 320)"><g id="4.cr-small_cr_1ursmrgr86l8p-fill" stroke="none" fill="#4f4a20"><g><path d="M 10 40C 10.000002 56.568544 23.431459 70.000002 40.000002 70.000002C 56.568544 70.000002 70.000002 56.568544 70.000002 40.000002C 70.000002 23.431459 56.568544 10.000002 40.000002 10.000002C 23.431459 10.000002 10.000002 23.431459 10.000002 40.000002"></path></g></g></g><g id="g-root-4.cr-small_cr_1ursmrgr86l8p-fill" data-item-order="999847950" data-item-id="4.cr-small_cr_1ursmrgr86l8p" data-item-class="Shape Stroke Fill Part Indexed" data-item-index="4" data-renderer-id="0" transform="translate(146, 320)"><g id="4.cr-small_cr_1ursmrgr86l8p-fill" stroke="none" fill="#4f4a20"><g><path d="M 10 40C 10.000002 56.568544 23.431459 70.000002 40.000002 70.000002C 56.568544 70.000002 70.000002 56.568544 70.000002 40.000002C 70.000002 23.431459 56.568544 10.000002 40.000002 10.000002C 23.431459 10.000002 10.000002 23.431459 10.000002 40.000002"></path></g></g></g><g id="g-root-3.line_sy_91im2kr86n0m-fill" data-item-order="999847953" data-item-id="3.line_sy_91im2kr86n0m" data-item-class="Part Indexed Stroke" data-item-index="3" data-renderer-id="0" transform="translate(206.109375, 266)"></g><g id="g-root-3.line_sy_91im2kr86n0m-fill" data-item-order="999847953" data-item-id="3.line_sy_91im2kr86n0m" data-item-class="Part Indexed Stroke" data-item-index="3" data-renderer-id="0" transform="translate(206.109375, 266)"></g><g id="g-root-3.cr-small_cr_6i2wsr86knj-fill" data-item-order="999847954" data-item-id="3.cr-small_cr_6i2wsr86knj" data-item-class="Shape Stroke Fill Part Indexed" data-item-index="3" data-renderer-id="0" transform="translate(146, 236)"><g id="3.cr-small_cr_6i2wsr86knj-fill" stroke="none" fill="#404b29"><g><path d="M 10 40C 10.000002 56.568544 23.431459 70.000002 40.000002 70.000002C 56.568544 70.000002 70.000002 56.568544 70.000002 40.000002C 70.000002 23.431459 56.568544 10.000002 40.000002 10.000002C 23.431459 10.000002 10.000002 23.431459 10.000002 40.000002"></path></g></g></g><g id="g-root-3.cr-small_cr_6i2wsr86knj-fill" data-item-order="999847954" data-item-id="3.cr-small_cr_6i2wsr86knj" data-item-class="Shape Stroke Fill Part Indexed" data-item-index="3" data-renderer-id="0" transform="translate(146, 236)"><g id="3.cr-small_cr_6i2wsr86knj-fill" stroke="none" fill="#404b29"><g><path d="M 10 40C 10.000002 56.568544 23.431459 70.000002 40.000002 70.000002C 56.568544 70.000002 70.000002 56.568544 70.000002 40.000002C 70.000002 23.431459 56.568544 10.000002 40.000002 10.000002C 23.431459 10.000002 10.000002 23.431459 10.000002 40.000002"></path></g></g></g><g id="g-root-2.line_sy_dhc470r86m8c-fill" data-item-order="999847957" data-item-id="2.line_sy_dhc470r86m8c" data-item-class="Part Indexed Stroke" data-item-index="2" data-renderer-id="0" transform="translate(206, 182)"></g><g id="g-root-2.line_sy_dhc470r86m8c-fill" data-item-order="999847957" data-item-id="2.line_sy_dhc470r86m8c" data-item-class="Part Indexed Stroke" data-item-index="2" data-renderer-id="0" transform="translate(206, 182)"></g><g id="g-root-2.cr-small_cr_91im2kr86n0l-fill" data-item-order="999847958" data-item-id="2.cr-small_cr_91im2kr86n0l" data-item-class="Shape Stroke Fill Part Indexed" data-item-index="2" data-renderer-id="0" transform="translate(146, 152)"><g id="2.cr-small_cr_91im2kr86n0l-fill" stroke="none" fill="#2b503e"><g><path d="M 10 40C 10.000002 56.568544 23.431459 70.000002 40.000002 70.000002C 56.568544 70.000002 70.000002 56.568544 70.000002 40.000002C 70.000002 23.431459 56.568544 10.000002 40.000002 10.000002C 23.431459 10.000002 10.000002 23.431459 10.000002 40.000002"></path></g></g></g><g id="g-root-2.cr-small_cr_91im2kr86n0l-fill" data-item-order="999847958" data-item-id="2.cr-small_cr_91im2kr86n0l" data-item-class="Shape Stroke Fill Part Indexed" data-item-index="2" data-renderer-id="0" transform="translate(146, 152)"><g id="2.cr-small_cr_91im2kr86n0l-fill" stroke="none" fill="#2b503e"><g><path d="M 10 40C 10.000002 56.568544 23.431459 70.000002 40.000002 70.000002C 56.568544 70.000002 70.000002 56.568544 70.000002 40.000002C 70.000002 23.431459 56.568544 10.000002 40.000002 10.000002C 23.431459 10.000002 10.000002 23.431459 10.000002 40.000002"></path></g></g></g><g id="g-root-1.line_sy_mcz4fwr86lfm-fill" data-item-order="999847961" data-item-id="1.line_sy_mcz4fwr86lfm" data-item-class="Part Indexed Indexed_1 Stroke" data-item-index="1" data-renderer-id="0" transform="translate(206, 98)"></g><g id="g-root-1.line_sy_mcz4fwr86lfm-fill" data-item-order="999847961" data-item-id="1.line_sy_mcz4fwr86lfm" data-item-class="Part Indexed Indexed_1 Stroke" data-item-index="1" data-renderer-id="0" transform="translate(206, 98)"></g><g id="g-root-1.cr-small_cr_mcz4fwr86lfn-fill" data-item-order="999847962" data-item-id="1.cr-small_cr_mcz4fwr86lfn" data-item-class="Shape Stroke Fill Part Indexed Indexed_1" data-item-index="1" data-renderer-id="0" transform="translate(146, 68)"><g id="1.cr-small_cr_mcz4fwr86lfn-fill" stroke="none" fill="#224754"><g><path d="M 10 40C 10.000002 56.568544 23.431459 70.000002 40.000002 70.000002C 56.568544 70.000002 70.000002 56.568544 70.000002 40.000002C 70.000002 23.431459 56.568544 10.000002 40.000002 10.000002C 23.431459 10.000002 10.000002 23.431459 10.000002 40.000002"></path></g></g></g><g id="g-root-1.cr-small_cr_mcz4fwr86lfn-fill" data-item-order="999847962" data-item-id="1.cr-small_cr_mcz4fwr86lfn" data-item-class="Shape Stroke Fill Part Indexed Indexed_1" data-item-index="1" data-renderer-id="0" transform="translate(146, 68)"><g id="1.cr-small_cr_mcz4fwr86lfn-fill" stroke="none" fill="#224754"><g><path d="M 10 40C 10.000002 56.568544 23.431459 70.000002 40.000002 70.000002C 56.568544 70.000002 70.000002 56.568544 70.000002 40.000002C 70.000002 23.431459 56.568544 10.000002 40.000002 10.000002C 23.431459 10.000002 10.000002 23.431459 10.000002 40.000002"></path></g></g></g><g id="g-root-tx_realtime_18mkjekr86mmn-fill" data-item-order="1000000000" data-item-id="tx_realtime_18mkjekr86mmn" data-item-class="Label Stroke Indexed" data-item-index="3" data-renderer-id="0" transform="translate(2, 242)"><g id="tx_realtime_18mkjekr86mmn-fill" stroke="none" fill="#A3A3A3"><g><text style="font: 20px Roboto, sans-serif; white-space: pre;" font-weight="20px" font-size="Roboto," font-family="sans-serif"><tspan x="50.93" y="34" dominant-baseline="ideographic">Real-Time </tspan><tspan x="21.27" y="58" dominant-baseline="ideographic">Collaboration</tspan></text></g></g></g><g id="g-root-coin_4j7argr8c6wz-fill" data-item-order="1000000000" data-item-id="coin_4j7argr8c6wz" data-item-class="Icon Stroke Indexed InsideFill InsideColorFill" data-item-index="5" data-renderer-id="0" transform="translate(158, 416)"></g><g id="g-root-chat_1cy0t30r8c6px-fill" data-item-order="1000000000" data-item-id="chat_1cy0t30r8c6px" data-item-class="Icon Stroke Indexed InsideFill InsideColorFill" data-item-index="3" data-renderer-id="0" transform="translate(158, 248)"></g><g id="g-root-1_m9uu64r8c7pm-fill" data-item-order="1000000000" data-item-id="1_m9uu64r8c7pm" data-item-class="Icon Stroke InsideFill" data-item-index="none" data-renderer-id="0" transform="translate(470, 242)"></g><g id="g-root-tx_enhanced_zpokzgr86m10-fill" data-item-order="1000000000" data-item-id="tx_enhanced_zpokzgr86m10" data-item-class="Label Stroke" data-item-index="none" data-renderer-id="0" transform="translate(542, 230)"><g id="tx_enhanced_zpokzgr86m10-fill" stroke="none" fill="#A3A3A3"><g><text style="font: 20px Roboto, sans-serif; white-space: pre;" font-weight="20px" font-size="Roboto," font-family="sans-serif"><tspan x="12" y="34" dominant-baseline="ideographic">Enhanced </tspan><tspan x="12" y="58" dominant-baseline="ideographic">Productivity and </tspan><tspan x="12" y="82" dominant-baseline="ideographic">Efficiency</tspan></text></g></g></g><g id="g-root-tx_enhanced_zpokzgr86m10-fill" data-item-order="1000000000" data-item-id="tx_enhanced_zpokzgr86m10" data-item-class="Label Stroke" data-item-index="none" data-renderer-id="0" transform="translate(542, 230)"><g id="tx_enhanced_zpokzgr86m10-fill" stroke="none" fill="#A3A3A3"><g><text style="font: 20px Roboto, sans-serif; white-space: pre;" font-weight="20px" font-size="Roboto," font-family="sans-serif"><tspan x="12" y="34" dominant-baseline="ideographic">Enhanced </tspan><tspan x="12" y="58" dominant-baseline="ideographic">Productivity and </tspan><tspan x="12" y="82" dominant-baseline="ideographic">Efficiency</tspan></text></g></g></g><g id="g-root-chat_1cy0t30r8c6px-fill" data-item-order="1000000000" data-item-id="chat_1cy0t30r8c6px" data-item-class="Icon Stroke Indexed InsideFill InsideColorFill" data-item-index="3" data-renderer-id="0" transform="translate(158, 248)"></g><g id="g-root-1_m9uu64r8c7pm-fill" data-item-order="1000000000" data-item-id="1_m9uu64r8c7pm" data-item-class="Icon Stroke InsideFill" data-item-index="none" data-renderer-id="0" transform="translate(470, 242)"></g><g id="g-root-tx_realtime_18mkjekr86mmn-fill" data-item-order="1000000000" data-item-id="tx_realtime_18mkjekr86mmn" data-item-class="Label Stroke Indexed" data-item-index="3" data-renderer-id="0" transform="translate(2, 242)"><g id="tx_realtime_18mkjekr86mmn-fill" stroke="none" fill="#A3A3A3"><g><text style="font: 20px Roboto, sans-serif; white-space: pre;" font-weight="20px" font-size="Roboto," font-family="sans-serif"><tspan x="50.93" y="34" dominant-baseline="ideographic">Real-Time </tspan><tspan x="21.27" y="58" dominant-baseline="ideographic">Collaboration</tspan></text></g></g></g><g id="g-root-lock_zmkapor8c8au-fill" data-item-order="1000000000" data-item-id="lock_zmkapor8c8au" data-item-class="Icon Stroke Indexed InsideFill InsideColorFill" data-item-index="2" data-renderer-id="0" transform="translate(158, 164)"></g><g id="g-root-lock_zmkapor8c8au-fill" data-item-order="1000000000" data-item-id="lock_zmkapor8c8au" data-item-class="Icon Stroke Indexed InsideFill InsideColorFill" data-item-index="2" data-renderer-id="0" transform="translate(158, 164)"></g><g id="g-root-tx_centrali_qvwzzwr86lu0-fill" data-item-order="1000000000" data-item-id="tx_centrali_qvwzzwr86lu0" data-item-class="Label Stroke Indexed" data-item-index="2" data-renderer-id="0" transform="translate(14, 158)"><g id="tx_centrali_qvwzzwr86lu0-fill" stroke="none" fill="#A3A3A3"><g><text style="font: 20px Roboto, sans-serif; white-space: pre;" font-weight="20px" font-size="Roboto," font-family="sans-serif"><tspan x="28.22" y="34" dominant-baseline="ideographic">Centralized </tspan><tspan x="15.05" y="58" dominant-baseline="ideographic">Organization</tspan></text></g></g></g><g id="g-root-tx_benefits_1uux070r86mf6-fill" data-item-order="1000000000" data-item-id="tx_benefits_1uux070r86mf6" data-item-class="Label Stroke Title" data-item-index="none" data-renderer-id="0" transform="translate(146, 2)"><g id="tx_benefits_1uux070r86mf6-fill" stroke="none" fill="#A3A3A3"><g><text style="font: 20px Roboto, sans-serif; white-space: pre;" font-weight="20px" font-size="Roboto," font-family="sans-serif"><tspan x="13.82" y="34" dominant-baseline="ideographic">Benefits of "Remember: A Link to the Past"</tspan></text></g></g></g><g id="g-root-tx_privacya_1ly11rwr86l1q-fill" data-item-order="1000000000" data-item-id="tx_privacya_1ly11rwr86l1q" data-item-class="Label Stroke Indexed" data-item-index="4" data-renderer-id="0" transform="translate(26, 326)"><g id="tx_privacya_1ly11rwr86l1q-fill" stroke="none" fill="#A3A3A3"><g><text style="font: 20px Roboto, sans-serif; white-space: pre;" font-weight="20px" font-size="Roboto," font-family="sans-serif"><tspan x="13.26" y="34" dominant-baseline="ideographic">Privacy and </tspan><tspan x="44.43" y="58" dominant-baseline="ideographic">Security</tspan></text></g></g></g><g id="g-root-tx_privacya_1ly11rwr86l1q-fill" data-item-order="1000000000" data-item-id="tx_privacya_1ly11rwr86l1q" data-item-class="Label Stroke Indexed" data-item-index="4" data-renderer-id="0" transform="translate(26, 326)"><g id="tx_privacya_1ly11rwr86l1q-fill" stroke="none" fill="#A3A3A3"><g><text style="font: 20px Roboto, sans-serif; white-space: pre;" font-weight="20px" font-size="Roboto," font-family="sans-serif"><tspan x="13.26" y="34" dominant-baseline="ideographic">Privacy and </tspan><tspan x="44.43" y="58" dominant-baseline="ideographic">Security</tspan></text></g></g></g><g id="g-root-tx_benefits_1uux070r86mf6-fill" data-item-order="1000000000" data-item-id="tx_benefits_1uux070r86mf6" data-item-class="Label Stroke Title" data-item-index="none" data-renderer-id="0" transform="translate(146, 2)"><g id="tx_benefits_1uux070r86mf6-fill" stroke="none" fill="#A3A3A3"><g><text style="font: 20px Roboto, sans-serif; white-space: pre;" font-weight="20px" font-size="Roboto," font-family="sans-serif"><tspan x="13.82" y="34" dominant-baseline="ideographic">Benefits of "Remember: A Link to the Past"</tspan></text></g></g></g><g id="g-root-tx_intellig_dl2ypor86k95-fill" data-item-order="1000000000" data-item-id="tx_intellig_dl2ypor86k95" data-item-class="Label Stroke Indexed Indexed_1" data-item-index="1" data-renderer-id="0" transform="translate(38, 74)"><g id="tx_intellig_dl2ypor86k95-fill" stroke="none" fill="#A3A3A3"><g><text style="font: 20px Roboto, sans-serif; white-space: pre;" font-weight="20px" font-size="Roboto," font-family="sans-serif"><tspan x="16.45" y="34" dominant-baseline="ideographic">Intelligent </tspan><tspan x="42.59" y="58" dominant-baseline="ideographic">Search</tspan></text></g></g></g><g id="g-root-sear_mbq9fgr8c6pz-fill" data-item-order="1000000000" data-item-id="sear_mbq9fgr8c6pz" data-item-class="Icon Stroke Indexed Indexed_1 InsideFill InsideColorFill" data-item-index="1" data-renderer-id="0" transform="translate(158, 80)"></g><g id="g-root-1_1q8uud8r8c8as-fill" data-item-order="1000000000" data-item-id="1_1q8uud8r8c8as" data-item-class="Icon Stroke Indexed InsideFill InsideColorFill" data-item-index="4" data-renderer-id="0" transform="translate(158, 332)"></g><g id="g-root-1_1q8uud8r8c8as-fill" data-item-order="1000000000" data-item-id="1_1q8uud8r8c8as" data-item-class="Icon Stroke Indexed InsideFill InsideColorFill" data-item-index="4" data-renderer-id="0" transform="translate(158, 332)"></g><g id="g-root-sear_mbq9fgr8c6pz-fill" data-item-order="1000000000" data-item-id="sear_mbq9fgr8c6pz" data-item-class="Icon Stroke Indexed Indexed_1 InsideFill InsideColorFill" data-item-index="1" data-renderer-id="0" transform="translate(158, 80)"></g><g id="g-root-tx_costeffe_93e1bwr86m11-fill" data-item-order="1000000000" data-item-id="tx_costeffe_93e1bwr86m11" data-item-class="Label Stroke Indexed" data-item-index="5" data-renderer-id="0" transform="translate(2, 422)"><g id="tx_costeffe_93e1bwr86m11-fill" stroke="none" fill="#A3A3A3"><g><text style="font: 20px Roboto, sans-serif; white-space: pre;" font-weight="20px" font-size="Roboto," font-family="sans-serif"><tspan x="15.76" y="34" dominant-baseline="ideographic">Cost-Effective</tspan></text></g></g></g><g id="g-root-tx_costeffe_93e1bwr86m11-fill" data-item-order="1000000000" data-item-id="tx_costeffe_93e1bwr86m11" data-item-class="Label Stroke Indexed" data-item-index="5" data-renderer-id="0" transform="translate(2, 422)"><g id="tx_costeffe_93e1bwr86m11-fill" stroke="none" fill="#A3A3A3"><g><text style="font: 20px Roboto, sans-serif; white-space: pre;" font-weight="20px" font-size="Roboto," font-family="sans-serif"><tspan x="15.76" y="34" dominant-baseline="ideographic">Cost-Effective</tspan></text></g></g></g><g id="g-root-coin_4j7argr8c6wz-fill" data-item-order="1000000000" data-item-id="coin_4j7argr8c6wz" data-item-class="Icon Stroke Indexed InsideFill InsideColorFill" data-item-index="5" data-renderer-id="0" transform="translate(158, 416)"></g><g id="g-root-tx_intellig_dl2ypor86k95-fill" data-item-order="1000000000" data-item-id="tx_intellig_dl2ypor86k95" data-item-class="Label Stroke Indexed Indexed_1" data-item-index="1" data-renderer-id="0" transform="translate(38, 74)"><g id="tx_intellig_dl2ypor86k95-fill" stroke="none" fill="#A3A3A3"><g><text style="font: 20px Roboto, sans-serif; white-space: pre;" font-weight="20px" font-size="Roboto," font-family="sans-serif"><tspan x="16.45" y="34" dominant-baseline="ideographic">Intelligent </tspan><tspan x="42.59" y="58" dominant-baseline="ideographic">Search</tspan></text></g></g></g><g id="g-root-tx_centrali_qvwzzwr86lu0-fill" data-item-order="1000000000" data-item-id="tx_centrali_qvwzzwr86lu0" data-item-class="Label Stroke Indexed" data-item-index="2" data-renderer-id="0" transform="translate(14, 158)"><g id="tx_centrali_qvwzzwr86lu0-fill" stroke="none" fill="#A3A3A3"><g><text style="font: 20px Roboto, sans-serif; white-space: pre;" font-weight="20px" font-size="Roboto," font-family="sans-serif"><tspan x="28.22" y="34" dominant-baseline="ideographic">Centralized </tspan><tspan x="15.05" y="58" dominant-baseline="ideographic">Organization</tspan></text></g></g></g><g id="g-root--1.cu_sy_znt5q4r86n0g-stroke" data-item-order="999847940" data-item-id="-1.cu_sy_znt5q4r86n0g" data-item-class="Part Fill Stroke ColorFillBlack ColorStrokeBlack" data-item-index="-1" data-renderer-id="0" transform="translate(290, 74)"><g id="-1.cu_sy_znt5q4r86n0g-stroke" fill="none" stroke-linecap="round" stroke-linejoin="round" stroke-miterlimit="4" stroke="#666666" stroke-width="2"><g><path d="M 65.766602 394C 80.754802 394 106.000002 308.0387 106.000002 202C 106.000002 95.9613 80.754802 10 65.766602 10C 80.775202 10.01 92.941702 96.2224 92.941702 202C 92.941702 307.7776 80.775202 393.99 65.766602 394ZM 65.765897 394C 80.774597 393.99 92.941097 307.7776 92.941097 202C 92.941097 96.2224 80.774597 10.01 65.765897 10L 51.957397 10C 66.060697 16.8878 77.199297 100.4719 77.199297 202C 77.199297 303.5282 65.382597 387.1122 51.279297 394L 65.765897 394ZM 77.2 202C 77.2 303.5282 65.3833 387.1122 51.28 394L 50.0615 394C 35.0734 394 10 308.0387 10 202C 10 95.9613 35.0734 10 50.0615 10C 50.6991 10 51.9581 10 51.9581 10C 66.0614 16.8878 77.2 100.4719 77.2 202Z"></path></g></g></g><g id="g-root--1.cu_sy_znt5q4r86n0g-stroke" data-item-order="999847940" data-item-id="-1.cu_sy_znt5q4r86n0g" data-item-class="Part Fill Stroke ColorFillBlack ColorStrokeBlack" data-item-index="-1" data-renderer-id="0" transform="translate(290, 74)"><g id="-1.cu_sy_znt5q4r86n0g-stroke" fill="none" stroke-linecap="round" stroke-linejoin="round" stroke-miterlimit="4" stroke="#666666" stroke-width="2"><g><path d="M 65.766602 394C 80.754802 394 106.000002 308.0387 106.000002 202C 106.000002 95.9613 80.754802 10 65.766602 10C 80.775202 10.01 92.941702 96.2224 92.941702 202C 92.941702 307.7776 80.775202 393.99 65.766602 394ZM 65.765897 394C 80.774597 393.99 92.941097 307.7776 92.941097 202C 92.941097 96.2224 80.774597 10.01 65.765897 10L 51.957397 10C 66.060697 16.8878 77.199297 100.4719 77.199297 202C 77.199297 303.5282 65.382597 387.1122 51.279297 394L 65.765897 394ZM 77.2 202C 77.2 303.5282 65.3833 387.1122 51.28 394L 50.0615 394C 35.0734 394 10 308.0387 10 202C 10 95.9613 35.0734 10 50.0615 10C 50.6991 10 51.9581 10 51.9581 10C 66.0614 16.8878 77.2 100.4719 77.2 202Z"></path></g></g></g><g id="g-root-0.cr-medium_cr_qssmkcr86knd-stroke" data-item-order="999847942" data-item-id="0.cr-medium_cr_qssmkcr86knd" data-item-class="Shape Stroke Fill Part Indexed_0" data-item-index="0" data-renderer-id="0" transform="translate(458, 230)"><g id="0.cr-medium_cr_qssmkcr86knd-stroke" fill="none" stroke-linecap="round" stroke-linejoin="round" stroke-miterlimit="4" stroke="#A3A3A3" stroke-width="2"><g><path d="M 10 46C 10 65.882251 26.117749 82 46 82C 65.882251 82 82 65.882251 82 46C 82 26.117749 65.882251 10 46 10C 26.117749 10 10 26.117749 10 46"></path></g></g></g><g id="g-root-0.cr-medium_cr_qssmkcr86knd-stroke" data-item-order="999847942" data-item-id="0.cr-medium_cr_qssmkcr86knd" data-item-class="Shape Stroke Fill Part Indexed_0" data-item-index="0" data-renderer-id="0" transform="translate(458, 230)"><g id="0.cr-medium_cr_qssmkcr86knd-stroke" fill="none" stroke-linecap="round" stroke-linejoin="round" stroke-miterlimit="4" stroke="#A3A3A3" stroke-width="2"><g><path d="M 10 46C 10 65.882251 26.117749 82 46 82C 65.882251 82 82 65.882251 82 46C 82 26.117749 65.882251 10 46 10C 26.117749 10 10 26.117749 10 46"></path></g></g></g><g id="g-root-5.line_sy_1qbz4n0r86m0y-stroke" data-item-order="999847945" data-item-id="5.line_sy_1qbz4n0r86m0y" data-item-class="Part Indexed Stroke" data-item-index="5" data-renderer-id="0" transform="translate(206, 308)"><g id="5.line_sy_1qbz4n0r86m0y-stroke" fill="none" stroke-linecap="round" stroke-linejoin="round" stroke-miterlimit="4" stroke="#F99539" stroke-width="2"><g><path d="M 272.49 11.320068L 130 136.000068L 10 136.000068"></path><path d="M 272.3 20.120068L 272.9 11.020068L 263.7 10.420068" stroke-dasharray="none"></path></g></g></g><g id="g-root-5.line_sy_1qbz4n0r86m0y-stroke" data-item-order="999847945" data-item-id="5.line_sy_1qbz4n0r86m0y" data-item-class="Part Indexed Stroke" data-item-index="5" data-renderer-id="0" transform="translate(206, 308)"><g id="5.line_sy_1qbz4n0r86m0y-stroke" fill="none" stroke-linecap="round" stroke-linejoin="round" stroke-miterlimit="4" stroke="#F99539" stroke-width="2"><g><path d="M 272.49 11.320068L 130 136.000068L 10 136.000068"></path><path d="M 272.3 20.120068L 272.9 11.020068L 263.7 10.420068" stroke-dasharray="none"></path></g></g></g><g id="g-root-5.cr-small_cr_1qbz4n0r86m0z-stroke" data-item-order="999847946" data-item-id="5.cr-small_cr_1qbz4n0r86m0z" data-item-class="Shape Stroke Fill Part Indexed" data-item-index="5" data-renderer-id="0" transform="translate(146, 404)"><g id="5.cr-small_cr_1qbz4n0r86m0z-stroke" fill="none" stroke-linecap="round" stroke-linejoin="round" stroke-miterlimit="4" stroke="#F99539" stroke-width="2"><g><path d="M 10 40C 10.000002 56.568544 23.431459 70.000002 40.000002 70.000002C 56.568544 70.000002 70.000002 56.568544 70.000002 40.000002C 70.000002 23.431459 56.568544 10.000002 40.000002 10.000002C 23.431459 10.000002 10.000002 23.431459 10.000002 40.000002"></path></g></g></g><g id="g-root-5.cr-small_cr_1qbz4n0r86m0z-stroke" data-item-order="999847946" data-item-id="5.cr-small_cr_1qbz4n0r86m0z" data-item-class="Shape Stroke Fill Part Indexed" data-item-index="5" data-renderer-id="0" transform="translate(146, 404)"><g id="5.cr-small_cr_1qbz4n0r86m0z-stroke" fill="none" stroke-linecap="round" stroke-linejoin="round" stroke-miterlimit="4" stroke="#F99539" stroke-width="2"><g><path d="M 10 40C 10.000002 56.568544 23.431459 70.000002 40.000002 70.000002C 56.568544 70.000002 70.000002 56.568544 70.000002 40.000002C 70.000002 23.431459 56.568544 10.000002 40.000002 10.000002C 23.431459 10.000002 10.000002 23.431459 10.000002 40.000002"></path></g></g></g><g id="g-root-4.line_sy_4mbl18r86kn4-stroke" data-item-order="999847949" data-item-id="4.line_sy_4mbl18r86kn4" data-item-class="Part Indexed Stroke" data-item-index="4" data-renderer-id="0" transform="translate(206, 290)"><g id="4.line_sy_4mbl18r86kn4-stroke" fill="none" stroke-linecap="round" stroke-linejoin="round" stroke-miterlimit="4" stroke="#FFE60A" stroke-width="2"><g><path d="M 254.19 10.859985L 130 69.999985L 10 69.999985"></path><path d="M 251.6 19.259985L 254.6 10.659985L 246 7.559985" stroke-dasharray="none"></path></g></g></g><g id="g-root-4.line_sy_4mbl18r86kn4-stroke" data-item-order="999847949" data-item-id="4.line_sy_4mbl18r86kn4" data-item-class="Part Indexed Stroke" data-item-index="4" data-renderer-id="0" transform="translate(206, 290)"><g id="4.line_sy_4mbl18r86kn4-stroke" fill="none" stroke-linecap="round" stroke-linejoin="round" stroke-miterlimit="4" stroke="#FFE60A" stroke-width="2"><g><path d="M 254.19 10.859985L 130 69.999985L 10 69.999985"></path><path d="M 251.6 19.259985L 254.6 10.659985L 246 7.559985" stroke-dasharray="none"></path></g></g></g><g id="g-root-4.cr-small_cr_1ursmrgr86l8p-stroke" data-item-order="999847950" data-item-id="4.cr-small_cr_1ursmrgr86l8p" data-item-class="Shape Stroke Fill Part Indexed" data-item-index="4" data-renderer-id="0" transform="translate(146, 320)"><g id="4.cr-small_cr_1ursmrgr86l8p-stroke" fill="none" stroke-linecap="round" stroke-linejoin="round" stroke-miterlimit="4" stroke="#FFE60A" stroke-width="2"><g><path d="M 10 40C 10.000002 56.568544 23.431459 70.000002 40.000002 70.000002C 56.568544 70.000002 70.000002 56.568544 70.000002 40.000002C 70.000002 23.431459 56.568544 10.000002 40.000002 10.000002C 23.431459 10.000002 10.000002 23.431459 10.000002 40.000002"></path></g></g></g><g id="g-root-4.cr-small_cr_1ursmrgr86l8p-stroke" data-item-order="999847950" data-item-id="4.cr-small_cr_1ursmrgr86l8p" data-item-class="Shape Stroke Fill Part Indexed" data-item-index="4" data-renderer-id="0" transform="translate(146, 320)"><g id="4.cr-small_cr_1ursmrgr86l8p-stroke" fill="none" stroke-linecap="round" stroke-linejoin="round" stroke-miterlimit="4" stroke="#FFE60A" stroke-width="2"><g><path d="M 10 40C 10.000002 56.568544 23.431459 70.000002 40.000002 70.000002C 56.568544 70.000002 70.000002 56.568544 70.000002 40.000002C 70.000002 23.431459 56.568544 10.000002 40.000002 10.000002C 23.431459 10.000002 10.000002 23.431459 10.000002 40.000002"></path></g></g></g><g id="g-root-3.line_sy_91im2kr86n0m-stroke" data-item-order="999847953" data-item-id="3.line_sy_91im2kr86n0m" data-item-class="Part Indexed Stroke" data-item-index="3" data-renderer-id="0" transform="translate(206.109375, 266)"><g id="3.line_sy_91im2kr86n0m-stroke" fill="none" stroke-linecap="round" stroke-linejoin="round" stroke-miterlimit="4" stroke="#A8DD38" stroke-width="2"><g><path d="M 247.89061 10L 129.89061 10L 10.00061 10"></path><path d="M 241.90061 16.5L 248.40061 10L 241.90061 3.5" stroke-dasharray="none"></path></g></g></g><g id="g-root-3.line_sy_91im2kr86n0m-stroke" data-item-order="999847953" data-item-id="3.line_sy_91im2kr86n0m" data-item-class="Part Indexed Stroke" data-item-index="3" data-renderer-id="0" transform="translate(206.109375, 266)"><g id="3.line_sy_91im2kr86n0m-stroke" fill="none" stroke-linecap="round" stroke-linejoin="round" stroke-miterlimit="4" stroke="#A8DD38" stroke-width="2"><g><path d="M 247.89061 10L 129.89061 10L 10.00061 10"></path><path d="M 241.90061 16.5L 248.40061 10L 241.90061 3.5" stroke-dasharray="none"></path></g></g></g><g id="g-root-3.cr-small_cr_6i2wsr86knj-stroke" data-item-order="999847954" data-item-id="3.cr-small_cr_6i2wsr86knj" data-item-class="Shape Stroke Fill Part Indexed" data-item-index="3" data-renderer-id="0" transform="translate(146, 236)"><g id="3.cr-small_cr_6i2wsr86knj-stroke" fill="none" stroke-linecap="round" stroke-linejoin="round" stroke-miterlimit="4" stroke="#A8DD38" stroke-width="2"><g><path d="M 10 40C 10.000002 56.568544 23.431459 70.000002 40.000002 70.000002C 56.568544 70.000002 70.000002 56.568544 70.000002 40.000002C 70.000002 23.431459 56.568544 10.000002 40.000002 10.000002C 23.431459 10.000002 10.000002 23.431459 10.000002 40.000002"></path></g></g></g><g id="g-root-3.cr-small_cr_6i2wsr86knj-stroke" data-item-order="999847954" data-item-id="3.cr-small_cr_6i2wsr86knj" data-item-class="Shape Stroke Fill Part Indexed" data-item-index="3" data-renderer-id="0" transform="translate(146, 236)"><g id="3.cr-small_cr_6i2wsr86knj-stroke" fill="none" stroke-linecap="round" stroke-linejoin="round" stroke-miterlimit="4" stroke="#A8DD38" stroke-width="2"><g><path d="M 10 40C 10.000002 56.568544 23.431459 70.000002 40.000002 70.000002C 56.568544 70.000002 70.000002 56.568544 70.000002 40.000002C 70.000002 23.431459 56.568544 10.000002 40.000002 10.000002C 23.431459 10.000002 10.000002 23.431459 10.000002 40.000002"></path></g></g></g><g id="g-root-2.line_sy_dhc470r86m8c-stroke" data-item-order="999847957" data-item-id="2.line_sy_dhc470r86m8c" data-item-class="Part Indexed Stroke" data-item-index="2" data-renderer-id="0" transform="translate(206, 182)"><g id="2.line_sy_dhc470r86m8c-stroke" fill="none" stroke-linecap="round" stroke-linejoin="round" stroke-miterlimit="4" stroke="#44E095" stroke-width="2"><g><path d="M 254.19 69.14L 130 10L 10 10"></path><path d="M 246 72.4L 254.6 69.4L 251.6 60.7" stroke-dasharray="none"></path></g></g></g><g id="g-root-2.line_sy_dhc470r86m8c-stroke" data-item-order="999847957" data-item-id="2.line_sy_dhc470r86m8c" data-item-class="Part Indexed Stroke" data-item-index="2" data-renderer-id="0" transform="translate(206, 182)"><g id="2.line_sy_dhc470r86m8c-stroke" fill="none" stroke-linecap="round" stroke-linejoin="round" stroke-miterlimit="4" stroke="#44E095" stroke-width="2"><g><path d="M 254.19 69.14L 130 10L 10 10"></path><path d="M 246 72.4L 254.6 69.4L 251.6 60.7" stroke-dasharray="none"></path></g></g></g><g id="g-root-2.cr-small_cr_91im2kr86n0l-stroke" data-item-order="999847958" data-item-id="2.cr-small_cr_91im2kr86n0l" data-item-class="Shape Stroke Fill Part Indexed" data-item-index="2" data-renderer-id="0" transform="translate(146, 152)"><g id="2.cr-small_cr_91im2kr86n0l-stroke" fill="none" stroke-linecap="round" stroke-linejoin="round" stroke-miterlimit="4" stroke="#44E095" stroke-width="2"><g><path d="M 10 40C 10.000002 56.568544 23.431459 70.000002 40.000002 70.000002C 56.568544 70.000002 70.000002 56.568544 70.000002 40.000002C 70.000002 23.431459 56.568544 10.000002 40.000002 10.000002C 23.431459 10.000002 10.000002 23.431459 10.000002 40.000002"></path></g></g></g><g id="g-root-2.cr-small_cr_91im2kr86n0l-stroke" data-item-order="999847958" data-item-id="2.cr-small_cr_91im2kr86n0l" data-item-class="Shape Stroke Fill Part Indexed" data-item-index="2" data-renderer-id="0" transform="translate(146, 152)"><g id="2.cr-small_cr_91im2kr86n0l-stroke" fill="none" stroke-linecap="round" stroke-linejoin="round" stroke-miterlimit="4" stroke="#44E095" stroke-width="2"><g><path d="M 10 40C 10.000002 56.568544 23.431459 70.000002 40.000002 70.000002C 56.568544 70.000002 70.000002 56.568544 70.000002 40.000002C 70.000002 23.431459 56.568544 10.000002 40.000002 10.000002C 23.431459 10.000002 10.000002 23.431459 10.000002 40.000002"></path></g></g></g><g id="g-root-1.line_sy_mcz4fwr86lfm-stroke" data-item-order="999847961" data-item-id="1.line_sy_mcz4fwr86lfm" data-item-class="Part Indexed Indexed_1 Stroke" data-item-index="1" data-renderer-id="0" transform="translate(206, 98)"><g id="1.line_sy_mcz4fwr86lfm-stroke" fill="none" stroke-linecap="round" stroke-linejoin="round" stroke-miterlimit="4" stroke="#1AC6FF" stroke-width="2"><g><path d="M 272.49 134.68L 130 10L 10 10"></path><path d="M 263.7 135.6L 272.9 135L 272.3 125.8" stroke-dasharray="none"></path></g></g></g><g id="g-root-1.line_sy_mcz4fwr86lfm-stroke" data-item-order="999847961" data-item-id="1.line_sy_mcz4fwr86lfm" data-item-class="Part Indexed Indexed_1 Stroke" data-item-index="1" data-renderer-id="0" transform="translate(206, 98)"><g id="1.line_sy_mcz4fwr86lfm-stroke" fill="none" stroke-linecap="round" stroke-linejoin="round" stroke-miterlimit="4" stroke="#1AC6FF" stroke-width="2"><g><path d="M 272.49 134.68L 130 10L 10 10"></path><path d="M 263.7 135.6L 272.9 135L 272.3 125.8" stroke-dasharray="none"></path></g></g></g><g id="g-root-1.cr-small_cr_mcz4fwr86lfn-stroke" data-item-order="999847962" data-item-id="1.cr-small_cr_mcz4fwr86lfn" data-item-class="Shape Stroke Fill Part Indexed Indexed_1" data-item-index="1" data-renderer-id="0" transform="translate(146, 68)"><g id="1.cr-small_cr_mcz4fwr86lfn-stroke" fill="none" stroke-linecap="round" stroke-linejoin="round" stroke-miterlimit="4" stroke="#1AC6FF" stroke-width="2"><g><path d="M 10 40C 10.000002 56.568544 23.431459 70.000002 40.000002 70.000002C 56.568544 70.000002 70.000002 56.568544 70.000002 40.000002C 70.000002 23.431459 56.568544 10.000002 40.000002 10.000002C 23.431459 10.000002 10.000002 23.431459 10.000002 40.000002"></path></g></g></g><g id="g-root-1.cr-small_cr_mcz4fwr86lfn-stroke" data-item-order="999847962" data-item-id="1.cr-small_cr_mcz4fwr86lfn" data-item-class="Shape Stroke Fill Part Indexed Indexed_1" data-item-index="1" data-renderer-id="0" transform="translate(146, 68)"><g id="1.cr-small_cr_mcz4fwr86lfn-stroke" fill="none" stroke-linecap="round" stroke-linejoin="round" stroke-miterlimit="4" stroke="#1AC6FF" stroke-width="2"><g><path d="M 10 40C 10.000002 56.568544 23.431459 70.000002 40.000002 70.000002C 56.568544 70.000002 70.000002 56.568544 70.000002 40.000002C 70.000002 23.431459 56.568544 10.000002 40.000002 10.000002C 23.431459 10.000002 10.000002 23.431459 10.000002 40.000002"></path></g></g></g><g id="g-root-tx_realtime_18mkjekr86mmn-stroke" data-item-order="1000000000" data-item-id="tx_realtime_18mkjekr86mmn" data-item-class="Label Stroke Indexed" data-item-index="3" data-renderer-id="0" transform="translate(2, 242)"></g><g id="g-root-coin_4j7argr8c6wz-stroke" data-item-order="1000000000" data-item-id="coin_4j7argr8c6wz" data-item-class="Icon Stroke Indexed InsideFill InsideColorFill" data-item-index="5" data-renderer-id="0" transform="translate(158, 416)"><g id="coin_4j7argr8c6wz-stroke" fill="none" stroke-linecap="round" stroke-linejoin="round" stroke-miterlimit="4" stroke="#F99539" stroke-width="2"><g><path d="M 10.756 25.682499C 10.756001 26.510927 14.113865 27.182499 18.256001 27.182499C 22.398136 27.182499 25.756001 26.510927 25.756001 25.682499C 25.756001 24.854073 22.398136 24.182499 18.256001 24.182499C 14.113865 24.182499 10.756001 24.854073 10.756001 25.682499ZM 25.75 25.682499L 25.75 30.182499C 25.75 31.012001 22.393 31.682499 18.25 31.682499C 14.107 31.682499 10.75 31.012001 10.75 30.182499L 10.75 25.682499M 25.75 30.182499L 25.75 34.682499C 25.75 35.512001 22.393 36.182499 18.25 36.182499C 14.107 36.182499 10.75 35.512001 10.75 34.682499L 10.75 30.182499M 25.75 34.682499L 25.75 39.182499C 25.75 40.012001 22.393 40.682499 18.25 40.682499C 14.107 40.682499 10.75 40.012001 10.75 39.182499L 10.75 34.682499M 25.75 39.182499L 25.75 43.682499C 25.75 44.512001 22.393 45.182499 18.25 45.182499C 14.107 45.182499 10.75 44.512001 10.75 43.682499L 10.75 39.182499M 16.571501 20.431C 18.586 16.087 23.650002 13 29.5735 13C 31.095469 13.000131 32.610008 13.212166 34.073502 13.63C 35.00811 12.301909 36.35799 11.322481 37.9105 10.846C 38.136623 10.782591 38.379395 10.828762 38.566456 10.970752C 38.753517 11.112741 38.863266 11.334154 38.862999 11.569L 38.862999 16.0075C 40.453476 17.400961 41.655575 19.182917 42.351997 21.179501L 43.7575 21.179501C 44.58593 21.179501 45.2575 21.851072 45.2575 22.679501L 45.2575 27.179501C 45.2575 28.007927 44.58593 28.679501 43.7575 28.679501L 42.3535 28.679501C 41.563633 30.645819 40.202576 32.330284 38.445999 33.515499L 39.657997 36.802002C 40.10199 38.00539 39.486191 39.340828 38.282692 39.784523C 37.079197 40.228226 35.743908 39.612103 35.300499 38.408501L 34.239998 35.535999C 32.726555 35.990231 31.15514 36.222153 29.575001 36.224499M 35.881001 20.432499C 35.673893 20.432499 35.506001 20.600393 35.506001 20.807499C 35.506001 21.014606 35.673893 21.182499 35.881001 21.182499C 36.088104 21.182499 36.256001 21.014606 36.256001 20.807499C 36.256001 20.600393 36.088104 20.432499 35.881001 20.432499M 22 18.932499C 23.554644 17.2176 25.695293 16.147276 28 15.9325"></path></g></g></g><g id="g-root-chat_1cy0t30r8c6px-stroke" data-item-order="1000000000" data-item-id="chat_1cy0t30r8c6px" data-item-class="Icon Stroke Indexed InsideFill InsideColorFill" data-item-index="3" data-renderer-id="0" transform="translate(158, 248)"><g id="chat_1cy0t30r8c6px-stroke" fill="none" stroke-linecap="round" stroke-linejoin="round" stroke-miterlimit="4" stroke="#A8DD38" stroke-width="2"><g><path d="M 30.25 34.75L 41.5 34.75M 30.25 37.75L 37.75 37.75M 31.75 28.75C 31.679657 26.93914 32.368198 25.181076 33.649639 23.899637C 34.931076 22.6182 36.68914 21.929657 38.5 22C 40.31086 21.929657 42.068924 22.6182 43.350365 23.899637C 44.631802 25.181076 45.320343 26.93914 45.25 28.75ZM 34 15.25C 34 17.735281 36.014717 19.75 38.5 19.75C 40.985283 19.75 43 17.735281 43 15.25C 43 12.764719 40.985283 10.75 38.5 10.75C 36.014717 10.75 34 12.764719 34 15.25ZM 42.956501 14.6245C 42.161324 15.044208 41.274101 15.259182 40.375 15.25C 38.219185 15.250753 36.252686 14.018996 35.3125 12.079M 10.75 45.25C 10.679657 43.43914 11.3682 41.681076 12.649637 40.399639C 13.931076 39.118202 15.689139 38.429657 17.5 38.5C 19.310862 38.429657 21.068926 39.118202 22.350363 40.399639C 23.6318 41.681076 24.320343 43.43914 24.25 45.25ZM 13 31.75C 13 34.235283 15.014719 36.25 17.5 36.25C 19.985283 36.25 22 34.235283 22 31.75C 22 29.264719 19.985283 27.25 17.5 27.25C 15.014719 27.25 13 29.264719 13 31.75ZM 21.959499 31.150002C 21.173923 31.55374 20.301699 31.759697 19.418499 31.749998C 17.249447 31.750275 15.27339 30.503712 14.339499 28.546M 28.75 31.75C 27.921572 31.75 27.25 32.421574 27.25 33.25L 27.25 40.75C 27.25 41.578426 27.921572 42.25 28.75 42.25L 31 42.25L 31 45.25L 34.75 42.25L 43.75 42.25C 44.578426 42.25 45.25 41.578426 45.25 40.75L 45.25 33.25C 45.25 32.421574 44.578426 31.75 43.75 31.75ZM 25 13.75L 13.75 13.75M 21.25 16.75L 13.75 16.75M 27.25 10.75C 28.078428 10.75 28.75 11.421573 28.75 12.25L 28.75 19.75C 28.75 20.578426 28.078428 21.25 27.25 21.25L 25 21.25L 25 25L 21.25 21.25L 12.25 21.25C 11.421573 21.25 10.75 20.578426 10.75 19.75L 10.75 12.25C 10.75 11.421573 11.421573 10.75 12.25 10.75Z"></path></g></g></g><g id="g-root-1_m9uu64r8c7pm-stroke" data-item-order="1000000000" data-item-id="1_m9uu64r8c7pm" data-item-class="Icon Stroke InsideFill" data-item-index="none" data-renderer-id="0" transform="translate(470, 242)"><g id="1_m9uu64r8c7pm-stroke" fill="none" stroke-linecap="round" stroke-linejoin="round" stroke-miterlimit="4" stroke="#A3A3A3" stroke-width="2"><g><path d="M 31 14.5C 31 16.156855 32.343147 17.5 34 17.5C 35.656853 17.5 37 16.156855 37 14.5C 37 12.843145 35.656853 11.5 34 11.5C 32.343147 11.5 31 12.843145 31 14.5M 31 53.5C 31 55.156857 32.343147 56.5 34 56.5C 35.656853 56.5 37 55.156857 37 53.5C 37 51.843147 35.656853 50.5 34 50.5C 32.343147 50.5 31 51.843147 31 53.5M 17.212 20.212C 17.212 21.868855 18.555145 23.212 20.212 23.212C 21.868855 23.212 23.212 21.868855 23.212 20.212C 23.212 18.555145 21.868855 17.212 20.212 17.212C 18.555145 17.212 17.212 18.555145 17.212 20.212M 44.787998 47.787998C 44.788002 49.444855 46.131145 50.788002 47.788002 50.788002C 49.444855 50.788002 50.788002 49.444855 50.788002 47.788002C 50.788002 46.131145 49.444855 44.788002 47.788002 44.788002C 46.131145 44.788002 44.788002 46.131145 44.788002 47.788002M 11.5 34C 11.5 35.656853 12.843145 37 14.5 37C 16.156855 37 17.5 35.656853 17.5 34C 17.5 32.343147 16.156855 31 14.5 31C 12.843145 31 11.5 32.343147 11.5 34M 50.5 34C 50.5 35.656853 51.843147 37 53.5 37C 55.156857 37 56.5 35.656853 56.5 34C 56.5 32.343147 55.156857 31 53.5 31C 51.843147 31 50.5 32.343147 50.5 34M 17.212 47.787998C 17.212 49.444855 18.555145 50.788002 20.212 50.788002C 21.868855 50.788002 23.212 49.444855 23.212 47.788002C 23.212 46.131145 21.868855 44.788002 20.212 44.788002C 18.555145 44.788002 17.212 46.131145 17.212 47.788002M 44.787998 20.212C 44.788002 21.868855 46.131145 23.212 47.788002 23.212C 49.444855 23.212 50.788002 21.868855 50.788002 20.212C 50.788002 18.555145 49.444855 17.212 47.788002 17.212C 46.131145 17.212 44.788002 18.555145 44.788002 20.212M 41.57 41.556C 38.165329 37.605392 32.298866 36.928528 28.084 40C 27.470173 40.450188 26.914003 40.974117 26.427999 41.559998M 41.017998 35C 40.236618 33.719864 39.84726 32.238907 39.897999 30.739998L 39.898003 29C 40.004856 26.789803 38.886543 24.700191 36.988281 23.563089C 35.090019 22.425985 32.719978 22.425985 30.82172 23.563089C 28.92346 24.700191 27.805145 26.789803 27.912001 29L 27.912001 30.742001C 27.96381 32.239326 27.577332 33.719208 26.799999 35M 27.912001 29.986C 30.216 29.985998 32.406029 28.983694 33.911999 27.24C 35.418297 28.983259 37.608116 29.985466 39.911999 29.986M 39.188 29.954C 39.064919 32.782394 36.736073 35.0121 33.904999 35.0121C 31.073929 35.0121 28.745083 32.782394 28.622002 29.954"></path></g></g></g><g id="g-root-tx_enhanced_zpokzgr86m10-stroke" data-item-order="1000000000" data-item-id="tx_enhanced_zpokzgr86m10" data-item-class="Label Stroke" data-item-index="none" data-renderer-id="0" transform="translate(542, 230)"></g><g id="g-root-tx_enhanced_zpokzgr86m10-stroke" data-item-order="1000000000" data-item-id="tx_enhanced_zpokzgr86m10" data-item-class="Label Stroke" data-item-index="none" data-renderer-id="0" transform="translate(542, 230)"></g><g id="g-root-chat_1cy0t30r8c6px-stroke" data-item-order="1000000000" data-item-id="chat_1cy0t30r8c6px" data-item-class="Icon Stroke Indexed InsideFill InsideColorFill" data-item-index="3" data-renderer-id="0" transform="translate(158, 248)"><g id="chat_1cy0t30r8c6px-stroke" fill="none" stroke-linecap="round" stroke-linejoin="round" stroke-miterlimit="4" stroke="#A8DD38" stroke-width="2"><g><path d="M 30.25 34.75L 41.5 34.75M 30.25 37.75L 37.75 37.75M 31.75 28.75C 31.679657 26.93914 32.368198 25.181076 33.649639 23.899637C 34.931076 22.6182 36.68914 21.929657 38.5 22C 40.31086 21.929657 42.068924 22.6182 43.350365 23.899637C 44.631802 25.181076 45.320343 26.93914 45.25 28.75ZM 34 15.25C 34 17.735281 36.014717 19.75 38.5 19.75C 40.985283 19.75 43 17.735281 43 15.25C 43 12.764719 40.985283 10.75 38.5 10.75C 36.014717 10.75 34 12.764719 34 15.25ZM 42.956501 14.6245C 42.161324 15.044208 41.274101 15.259182 40.375 15.25C 38.219185 15.250753 36.252686 14.018996 35.3125 12.079M 10.75 45.25C 10.679657 43.43914 11.3682 41.681076 12.649637 40.399639C 13.931076 39.118202 15.689139 38.429657 17.5 38.5C 19.310862 38.429657 21.068926 39.118202 22.350363 40.399639C 23.6318 41.681076 24.320343 43.43914 24.25 45.25ZM 13 31.75C 13 34.235283 15.014719 36.25 17.5 36.25C 19.985283 36.25 22 34.235283 22 31.75C 22 29.264719 19.985283 27.25 17.5 27.25C 15.014719 27.25 13 29.264719 13 31.75ZM 21.959499 31.150002C 21.173923 31.55374 20.301699 31.759697 19.418499 31.749998C 17.249447 31.750275 15.27339 30.503712 14.339499 28.546M 28.75 31.75C 27.921572 31.75 27.25 32.421574 27.25 33.25L 27.25 40.75C 27.25 41.578426 27.921572 42.25 28.75 42.25L 31 42.25L 31 45.25L 34.75 42.25L 43.75 42.25C 44.578426 42.25 45.25 41.578426 45.25 40.75L 45.25 33.25C 45.25 32.421574 44.578426 31.75 43.75 31.75ZM 25 13.75L 13.75 13.75M 21.25 16.75L 13.75 16.75M 27.25 10.75C 28.078428 10.75 28.75 11.421573 28.75 12.25L 28.75 19.75C 28.75 20.578426 28.078428 21.25 27.25 21.25L 25 21.25L 25 25L 21.25 21.25L 12.25 21.25C 11.421573 21.25 10.75 20.578426 10.75 19.75L 10.75 12.25C 10.75 11.421573 11.421573 10.75 12.25 10.75Z"></path></g></g></g><g id="g-root-1_m9uu64r8c7pm-stroke" data-item-order="1000000000" data-item-id="1_m9uu64r8c7pm" data-item-class="Icon Stroke InsideFill" data-item-index="none" data-renderer-id="0" transform="translate(470, 242)"><g id="1_m9uu64r8c7pm-stroke" fill="none" stroke-linecap="round" stroke-linejoin="round" stroke-miterlimit="4" stroke="#A3A3A3" stroke-width="2"><g><path d="M 31 14.5C 31 16.156855 32.343147 17.5 34 17.5C 35.656853 17.5 37 16.156855 37 14.5C 37 12.843145 35.656853 11.5 34 11.5C 32.343147 11.5 31 12.843145 31 14.5M 31 53.5C 31 55.156857 32.343147 56.5 34 56.5C 35.656853 56.5 37 55.156857 37 53.5C 37 51.843147 35.656853 50.5 34 50.5C 32.343147 50.5 31 51.843147 31 53.5M 17.212 20.212C 17.212 21.868855 18.555145 23.212 20.212 23.212C 21.868855 23.212 23.212 21.868855 23.212 20.212C 23.212 18.555145 21.868855 17.212 20.212 17.212C 18.555145 17.212 17.212 18.555145 17.212 20.212M 44.787998 47.787998C 44.788002 49.444855 46.131145 50.788002 47.788002 50.788002C 49.444855 50.788002 50.788002 49.444855 50.788002 47.788002C 50.788002 46.131145 49.444855 44.788002 47.788002 44.788002C 46.131145 44.788002 44.788002 46.131145 44.788002 47.788002M 11.5 34C 11.5 35.656853 12.843145 37 14.5 37C 16.156855 37 17.5 35.656853 17.5 34C 17.5 32.343147 16.156855 31 14.5 31C 12.843145 31 11.5 32.343147 11.5 34M 50.5 34C 50.5 35.656853 51.843147 37 53.5 37C 55.156857 37 56.5 35.656853 56.5 34C 56.5 32.343147 55.156857 31 53.5 31C 51.843147 31 50.5 32.343147 50.5 34M 17.212 47.787998C 17.212 49.444855 18.555145 50.788002 20.212 50.788002C 21.868855 50.788002 23.212 49.444855 23.212 47.788002C 23.212 46.131145 21.868855 44.788002 20.212 44.788002C 18.555145 44.788002 17.212 46.131145 17.212 47.788002M 44.787998 20.212C 44.788002 21.868855 46.131145 23.212 47.788002 23.212C 49.444855 23.212 50.788002 21.868855 50.788002 20.212C 50.788002 18.555145 49.444855 17.212 47.788002 17.212C 46.131145 17.212 44.788002 18.555145 44.788002 20.212M 41.57 41.556C 38.165329 37.605392 32.298866 36.928528 28.084 40C 27.470173 40.450188 26.914003 40.974117 26.427999 41.559998M 41.017998 35C 40.236618 33.719864 39.84726 32.238907 39.897999 30.739998L 39.898003 29C 40.004856 26.789803 38.886543 24.700191 36.988281 23.563089C 35.090019 22.425985 32.719978 22.425985 30.82172 23.563089C 28.92346 24.700191 27.805145 26.789803 27.912001 29L 27.912001 30.742001C 27.96381 32.239326 27.577332 33.719208 26.799999 35M 27.912001 29.986C 30.216 29.985998 32.406029 28.983694 33.911999 27.24C 35.418297 28.983259 37.608116 29.985466 39.911999 29.986M 39.188 29.954C 39.064919 32.782394 36.736073 35.0121 33.904999 35.0121C 31.073929 35.0121 28.745083 32.782394 28.622002 29.954"></path></g></g></g><g id="g-root-tx_realtime_18mkjekr86mmn-stroke" data-item-order="1000000000" data-item-id="tx_realtime_18mkjekr86mmn" data-item-class="Label Stroke Indexed" data-item-index="3" data-renderer-id="0" transform="translate(2, 242)"></g><g id="g-root-lock_zmkapor8c8au-stroke" data-item-order="1000000000" data-item-id="lock_zmkapor8c8au" data-item-class="Icon Stroke Indexed InsideFill InsideColorFill" data-item-index="2" data-renderer-id="0" transform="translate(158, 164)"><g id="lock_zmkapor8c8au-stroke" fill="none" stroke-linecap="round" stroke-linejoin="round" stroke-miterlimit="4" stroke="#44E095" stroke-width="2"><g><path d="M 27.2815 45.266499L 12.2815 45.266499C 11.453073 45.266499 10.7815 44.594925 10.7815 43.766499L 10.7815 12.2665C 10.7815 11.438073 11.453073 10.7665 12.2815 10.7665L 32.221001 10.7665C 32.617931 10.764992 32.999283 10.920875 33.281502 11.2L 38.842003 16.7605C 39.123325 17.041739 39.281414 17.423208 39.281502 17.821001L 39.281502 22.766499M 16.7815 30.880001L 21.2125 26.448999C 21.649538 26.012863 22.333374 25.945107 22.8475 26.287001L 24.937 27.6805C 25.463963 28.03141 26.167332 27.950228 26.6005 27.488501L 30.7075 23.107M 16.7815 19.7665L 16.7815 34.766499L 25.7815 34.766499M 33.281502 33.266499L 43.781502 33.266499C 43.781502 33.266499 45.281502 33.266499 45.281502 34.766499L 45.281502 43.764999C 45.281502 43.764999 45.281502 45.264999 43.781502 45.264999L 33.281502 45.264999C 33.281502 45.264999 31.7815 45.264999 31.7815 43.764999L 31.7815 34.766499C 31.7815 34.766499 31.7815 33.266499 33.281502 33.266499M 36.656502 39.361C 36.656502 40.396534 37.495968 41.236 38.531502 41.236C 39.567036 41.236 40.406502 40.396534 40.406502 39.361C 40.406502 38.325466 39.567036 37.486 38.531502 37.486C 37.495968 37.486 36.656502 38.325466 36.656502 39.361M 42.281502 31.016499C 42.281502 28.945433 40.60257 27.2665 38.531502 27.2665C 36.460434 27.2665 34.781502 28.945433 34.781502 31.0165L 34.781502 33.266499L 42.281502 33.266499Z"></path></g></g></g><g id="g-root-lock_zmkapor8c8au-stroke" data-item-order="1000000000" data-item-id="lock_zmkapor8c8au" data-item-class="Icon Stroke Indexed InsideFill InsideColorFill" data-item-index="2" data-renderer-id="0" transform="translate(158, 164)"><g id="lock_zmkapor8c8au-stroke" fill="none" stroke-linecap="round" stroke-linejoin="round" stroke-miterlimit="4" stroke="#44E095" stroke-width="2"><g><path d="M 27.2815 45.266499L 12.2815 45.266499C 11.453073 45.266499 10.7815 44.594925 10.7815 43.766499L 10.7815 12.2665C 10.7815 11.438073 11.453073 10.7665 12.2815 10.7665L 32.221001 10.7665C 32.617931 10.764992 32.999283 10.920875 33.281502 11.2L 38.842003 16.7605C 39.123325 17.041739 39.281414 17.423208 39.281502 17.821001L 39.281502 22.766499M 16.7815 30.880001L 21.2125 26.448999C 21.649538 26.012863 22.333374 25.945107 22.8475 26.287001L 24.937 27.6805C 25.463963 28.03141 26.167332 27.950228 26.6005 27.488501L 30.7075 23.107M 16.7815 19.7665L 16.7815 34.766499L 25.7815 34.766499M 33.281502 33.266499L 43.781502 33.266499C 43.781502 33.266499 45.281502 33.266499 45.281502 34.766499L 45.281502 43.764999C 45.281502 43.764999 45.281502 45.264999 43.781502 45.264999L 33.281502 45.264999C 33.281502 45.264999 31.7815 45.264999 31.7815 43.764999L 31.7815 34.766499C 31.7815 34.766499 31.7815 33.266499 33.281502 33.266499M 36.656502 39.361C 36.656502 40.396534 37.495968 41.236 38.531502 41.236C 39.567036 41.236 40.406502 40.396534 40.406502 39.361C 40.406502 38.325466 39.567036 37.486 38.531502 37.486C 37.495968 37.486 36.656502 38.325466 36.656502 39.361M 42.281502 31.016499C 42.281502 28.945433 40.60257 27.2665 38.531502 27.2665C 36.460434 27.2665 34.781502 28.945433 34.781502 31.0165L 34.781502 33.266499L 42.281502 33.266499Z"></path></g></g></g><g id="g-root-tx_centrali_qvwzzwr86lu0-stroke" data-item-order="1000000000" data-item-id="tx_centrali_qvwzzwr86lu0" data-item-class="Label Stroke Indexed" data-item-index="2" data-renderer-id="0" transform="translate(14, 158)"></g><g id="g-root-tx_benefits_1uux070r86mf6-stroke" data-item-order="1000000000" data-item-id="tx_benefits_1uux070r86mf6" data-item-class="Label Stroke Title" data-item-index="none" data-renderer-id="0" transform="translate(146, 2)"></g><g id="g-root-tx_privacya_1ly11rwr86l1q-stroke" data-item-order="1000000000" data-item-id="tx_privacya_1ly11rwr86l1q" data-item-class="Label Stroke Indexed" data-item-index="4" data-renderer-id="0" transform="translate(26, 326)"></g><g id="g-root-tx_privacya_1ly11rwr86l1q-stroke" data-item-order="1000000000" data-item-id="tx_privacya_1ly11rwr86l1q" data-item-class="Label Stroke Indexed" data-item-index="4" data-renderer-id="0" transform="translate(26, 326)"></g><g id="g-root-tx_benefits_1uux070r86mf6-stroke" data-item-order="1000000000" data-item-id="tx_benefits_1uux070r86mf6" data-item-class="Label Stroke Title" data-item-index="none" data-renderer-id="0" transform="translate(146, 2)"></g><g id="g-root-tx_intellig_dl2ypor86k95-stroke" data-item-order="1000000000" data-item-id="tx_intellig_dl2ypor86k95" data-item-class="Label Stroke Indexed Indexed_1" data-item-index="1" data-renderer-id="0" transform="translate(38, 74)"></g><g id="g-root-sear_mbq9fgr8c6pz-stroke" data-item-order="1000000000" data-item-id="sear_mbq9fgr8c6pz" data-item-class="Icon Stroke Indexed Indexed_1 InsideFill InsideColorFill" data-item-index="1" data-renderer-id="0" transform="translate(158, 80)"><g id="sear_mbq9fgr8c6pz-stroke" fill="none" stroke-linecap="round" stroke-linejoin="round" stroke-miterlimit="4" stroke="#1AC6FF" stroke-width="2"><g><path d="M 28.75 35.543499C 28.75 39.295444 31.791553 42.336998 35.543499 42.336998C 39.295444 42.336998 42.336998 39.295444 42.336998 35.543499C 42.336998 31.791553 39.295444 28.75 35.543499 28.75C 31.791553 28.75 28.75 31.791553 28.75 35.543499ZM 45.25 45.25L 40.378002 40.378002M 16.75 22.75L 31 22.75M 16.75 27.25L 25.75 27.25M 16.75 18.25L 27.25 18.25M 16.75 31.75L 22.75 31.75M 16.75 36.25L 22.75 36.25M 28.75 45.25L 12.25 45.25C 11.421573 45.25 10.75 44.578426 10.75 43.75L 10.75 12.25C 10.75 11.421573 11.421573 10.75 12.25 10.75L 32.189499 10.75C 32.587292 10.750085 32.968761 10.908176 33.25 11.1895L 38.810501 16.75C 39.091827 17.031239 39.249916 17.412708 39.25 17.810499L 39.25 24.25"></path></g></g></g><g id="g-root-1_1q8uud8r8c8as-stroke" data-item-order="1000000000" data-item-id="1_1q8uud8r8c8as" data-item-class="Icon Stroke Indexed InsideFill InsideColorFill" data-item-index="4" data-renderer-id="0" transform="translate(158, 332)"><g id="1_1q8uud8r8c8as-stroke" fill="none" stroke-linecap="round" stroke-linejoin="round" stroke-miterlimit="4" stroke="#FFE60A" stroke-width="2"><g><path d="M 18.955 28.795C 14.699169 28.817394 11.158777 32.073441 10.780979 36.312531C 10.403181 40.551617 13.311975 44.382431 17.496773 45.157074C 21.681572 45.931717 25.768875 43.395939 26.9335 39.302498L 28.753 39.302498L 30.253 40.751499L 31.753 39.310001L 33.252998 39.310001L 34.760498 40.740997L 36.253002 39.310001L 38.503002 39.2995L 40.75 36.947502L 38.482002 34.795002L 26.912498 34.795002C 25.897087 31.242678 22.649597 28.794052 18.955 28.795ZM 13.7425 37.045002C 13.7425 38.28764 14.74986 39.295002 15.9925 39.295002C 17.235142 39.295002 18.2425 38.28764 18.2425 37.045002C 18.2425 35.802361 17.235142 34.795002 15.9925 34.795002C 14.74986 34.795002 13.7425 35.802361 13.7425 37.045002ZM 43.75 36.2575C 44.578426 36.2575 45.25 35.58593 45.25 34.7575L 45.25 22.795C 45.245872 21.969503 44.575508 21.30249 43.75 21.3025L 27.25 21.289C 26.421572 21.289 25.75 21.960573 25.75 22.789L 25.75 27.3325M 28.758999 21.295L 28.75 17.575001C 28.733433 13.847078 31.742077 10.811569 35.470001 10.795C 39.197922 10.778432 42.233433 13.787078 42.25 17.514999L 42.266499 21.295M 33.25 28.045C 33.25 29.28764 34.257362 30.295002 35.5 30.295002C 36.742641 30.295002 37.75 29.28764 37.75 28.045002C 37.75 26.802361 36.742641 25.795002 35.5 25.795002C 34.257362 25.795002 33.25 26.802361 33.25 28.045002Z"></path></g></g></g><g id="g-root-1_1q8uud8r8c8as-stroke" data-item-order="1000000000" data-item-id="1_1q8uud8r8c8as" data-item-class="Icon Stroke Indexed InsideFill InsideColorFill" data-item-index="4" data-renderer-id="0" transform="translate(158, 332)"><g id="1_1q8uud8r8c8as-stroke" fill="none" stroke-linecap="round" stroke-linejoin="round" stroke-miterlimit="4" stroke="#FFE60A" stroke-width="2"><g><path d="M 18.955 28.795C 14.699169 28.817394 11.158777 32.073441 10.780979 36.312531C 10.403181 40.551617 13.311975 44.382431 17.496773 45.157074C 21.681572 45.931717 25.768875 43.395939 26.9335 39.302498L 28.753 39.302498L 30.253 40.751499L 31.753 39.310001L 33.252998 39.310001L 34.760498 40.740997L 36.253002 39.310001L 38.503002 39.2995L 40.75 36.947502L 38.482002 34.795002L 26.912498 34.795002C 25.897087 31.242678 22.649597 28.794052 18.955 28.795ZM 13.7425 37.045002C 13.7425 38.28764 14.74986 39.295002 15.9925 39.295002C 17.235142 39.295002 18.2425 38.28764 18.2425 37.045002C 18.2425 35.802361 17.235142 34.795002 15.9925 34.795002C 14.74986 34.795002 13.7425 35.802361 13.7425 37.045002ZM 43.75 36.2575C 44.578426 36.2575 45.25 35.58593 45.25 34.7575L 45.25 22.795C 45.245872 21.969503 44.575508 21.30249 43.75 21.3025L 27.25 21.289C 26.421572 21.289 25.75 21.960573 25.75 22.789L 25.75 27.3325M 28.758999 21.295L 28.75 17.575001C 28.733433 13.847078 31.742077 10.811569 35.470001 10.795C 39.197922 10.778432 42.233433 13.787078 42.25 17.514999L 42.266499 21.295M 33.25 28.045C 33.25 29.28764 34.257362 30.295002 35.5 30.295002C 36.742641 30.295002 37.75 29.28764 37.75 28.045002C 37.75 26.802361 36.742641 25.795002 35.5 25.795002C 34.257362 25.795002 33.25 26.802361 33.25 28.045002Z"></path></g></g></g><g id="g-root-sear_mbq9fgr8c6pz-stroke" data-item-order="1000000000" data-item-id="sear_mbq9fgr8c6pz" data-item-class="Icon Stroke Indexed Indexed_1 InsideFill InsideColorFill" data-item-index="1" data-renderer-id="0" transform="translate(158, 80)"><g id="sear_mbq9fgr8c6pz-stroke" fill="none" stroke-linecap="round" stroke-linejoin="round" stroke-miterlimit="4" stroke="#1AC6FF" stroke-width="2"><g><path d="M 28.75 35.543499C 28.75 39.295444 31.791553 42.336998 35.543499 42.336998C 39.295444 42.336998 42.336998 39.295444 42.336998 35.543499C 42.336998 31.791553 39.295444 28.75 35.543499 28.75C 31.791553 28.75 28.75 31.791553 28.75 35.543499ZM 45.25 45.25L 40.378002 40.378002M 16.75 22.75L 31 22.75M 16.75 27.25L 25.75 27.25M 16.75 18.25L 27.25 18.25M 16.75 31.75L 22.75 31.75M 16.75 36.25L 22.75 36.25M 28.75 45.25L 12.25 45.25C 11.421573 45.25 10.75 44.578426 10.75 43.75L 10.75 12.25C 10.75 11.421573 11.421573 10.75 12.25 10.75L 32.189499 10.75C 32.587292 10.750085 32.968761 10.908176 33.25 11.1895L 38.810501 16.75C 39.091827 17.031239 39.249916 17.412708 39.25 17.810499L 39.25 24.25"></path></g></g></g><g id="g-root-tx_costeffe_93e1bwr86m11-stroke" data-item-order="1000000000" data-item-id="tx_costeffe_93e1bwr86m11" data-item-class="Label Stroke Indexed" data-item-index="5" data-renderer-id="0" transform="translate(2, 422)"></g><g id="g-root-tx_costeffe_93e1bwr86m11-stroke" data-item-order="1000000000" data-item-id="tx_costeffe_93e1bwr86m11" data-item-class="Label Stroke Indexed" data-item-index="5" data-renderer-id="0" transform="translate(2, 422)"></g><g id="g-root-coin_4j7argr8c6wz-stroke" data-item-order="1000000000" data-item-id="coin_4j7argr8c6wz" data-item-class="Icon Stroke Indexed InsideFill InsideColorFill" data-item-index="5" data-renderer-id="0" transform="translate(158, 416)"><g id="coin_4j7argr8c6wz-stroke" fill="none" stroke-linecap="round" stroke-linejoin="round" stroke-miterlimit="4" stroke="#F99539" stroke-width="2"><g><path d="M 10.756 25.682499C 10.756001 26.510927 14.113865 27.182499 18.256001 27.182499C 22.398136 27.182499 25.756001 26.510927 25.756001 25.682499C 25.756001 24.854073 22.398136 24.182499 18.256001 24.182499C 14.113865 24.182499 10.756001 24.854073 10.756001 25.682499ZM 25.75 25.682499L 25.75 30.182499C 25.75 31.012001 22.393 31.682499 18.25 31.682499C 14.107 31.682499 10.75 31.012001 10.75 30.182499L 10.75 25.682499M 25.75 30.182499L 25.75 34.682499C 25.75 35.512001 22.393 36.182499 18.25 36.182499C 14.107 36.182499 10.75 35.512001 10.75 34.682499L 10.75 30.182499M 25.75 34.682499L 25.75 39.182499C 25.75 40.012001 22.393 40.682499 18.25 40.682499C 14.107 40.682499 10.75 40.012001 10.75 39.182499L 10.75 34.682499M 25.75 39.182499L 25.75 43.682499C 25.75 44.512001 22.393 45.182499 18.25 45.182499C 14.107 45.182499 10.75 44.512001 10.75 43.682499L 10.75 39.182499M 16.571501 20.431C 18.586 16.087 23.650002 13 29.5735 13C 31.095469 13.000131 32.610008 13.212166 34.073502 13.63C 35.00811 12.301909 36.35799 11.322481 37.9105 10.846C 38.136623 10.782591 38.379395 10.828762 38.566456 10.970752C 38.753517 11.112741 38.863266 11.334154 38.862999 11.569L 38.862999 16.0075C 40.453476 17.400961 41.655575 19.182917 42.351997 21.179501L 43.7575 21.179501C 44.58593 21.179501 45.2575 21.851072 45.2575 22.679501L 45.2575 27.179501C 45.2575 28.007927 44.58593 28.679501 43.7575 28.679501L 42.3535 28.679501C 41.563633 30.645819 40.202576 32.330284 38.445999 33.515499L 39.657997 36.802002C 40.10199 38.00539 39.486191 39.340828 38.282692 39.784523C 37.079197 40.228226 35.743908 39.612103 35.300499 38.408501L 34.239998 35.535999C 32.726555 35.990231 31.15514 36.222153 29.575001 36.224499M 35.881001 20.432499C 35.673893 20.432499 35.506001 20.600393 35.506001 20.807499C 35.506001 21.014606 35.673893 21.182499 35.881001 21.182499C 36.088104 21.182499 36.256001 21.014606 36.256001 20.807499C 36.256001 20.600393 36.088104 20.432499 35.881001 20.432499M 22 18.932499C 23.554644 17.2176 25.695293 16.147276 28 15.9325"></path></g></g></g><g id="g-root-tx_intellig_dl2ypor86k95-stroke" data-item-order="1000000000" data-item-id="tx_intellig_dl2ypor86k95" data-item-class="Label Stroke Indexed Indexed_1" data-item-index="1" data-renderer-id="0" transform="translate(38, 74)"></g><g id="g-root-tx_centrali_qvwzzwr86lu0-stroke" data-item-order="1000000000" data-item-id="tx_centrali_qvwzzwr86lu0" data-item-class="Label Stroke Indexed" data-item-index="2" data-renderer-id="0" transform="translate(14, 158)"></g></g></g></svg>